<?xml version="1.0" standalone="no"?>
<!DOCTYPE svg PUBLIC "-//W3C//DTD SVG 20010904//EN"
 "http://www.w3.org/TR/2001/REC-SVG-20010904/DTD/svg10.dtd">
<svg version="1.0" xmlns="http://www.w3.org/2000/svg"
 width="225.000000pt" height="224.000000pt" viewBox="0 0 225.000000 224.000000"
 preserveAspectRatio="xMidYMid meet">
<metadata>
Created by potrace 1.13, written by Peter Selinger 2001-2015
</metadata>
<g transform="translate(0.000000,224.000000) scale(0.100000,-0.100000)"
fill="#000000" stroke="none">
<path d="M928 2189 c-165 -11 -235 -36 -337 -118 -56 -46 -178 -191 -195 -234
-43 -103 -47 -567 -7 -742 33 -141 69 -205 177 -311 65 -64 115 -102 166 -129
40 -21 75 -39 77 -41 2 -2 -26 -35 -62 -73 -84 -90 -131 -184 -159 -319 -19
-97 -18 -135 2 -102 6 8 10 25 10 36 0 35 49 192 77 250 31 65 74 118 125 154
l38 28 34 -34 c19 -19 41 -34 50 -34 22 0 20 17 -3 25 -10 3 -27 15 -37 27
l-19 21 34 -6 c18 -4 40 -7 48 -7 13 0 14 -11 9 -64 -3 -36 -8 -70 -10 -78
-14 -43 -15 -78 -3 -78 22 0 67 344 67 514 0 73 -3 87 -29 128 -16 25 -40 53
-52 63 l-24 17 35 -5 c19 -3 45 -8 57 -12 20 -6 26 1 55 61 37 77 59 90 77 46
11 -27 8 -40 -30 -133 l-43 -104 -4 -177 c-5 -196 5 -408 19 -408 5 0 9 47 9
105 0 110 0 111 48 99 21 -6 22 -11 22 -100 0 -73 3 -94 14 -94 11 0 15 34 19
163 3 89 10 230 16 312 22 290 36 345 86 345 22 0 25 -4 25 -38 0 -21 -7 -47
-15 -58 -21 -28 -18 -44 10 -44 14 0 25 -3 25 -6 0 -3 -15 -23 -32 -45 -31
-39 -33 -45 -36 -147 -4 -98 12 -381 24 -444 3 -16 12 -28 21 -28 11 0 14 8 9
38 -3 20 -7 60 -8 87 l-2 50 52 6 c28 4 64 10 79 14 22 5 25 4 14 -8 -6 -8
-25 -20 -41 -27 -26 -11 -41 -30 -24 -30 13 0 84 44 84 52 0 4 4 8 10 8 11 0
64 -109 91 -189 17 -47 39 -187 39 -243 0 -24 16 -23 23 1 7 28 -19 191 -44
274 -12 40 -34 97 -50 129 l-28 56 67 40 c115 69 174 138 248 290 85 174 97
225 98 387 0 126 -1 133 -37 228 -72 193 -149 306 -290 424 -51 42 -118 101
-149 130 -92 87 -127 97 -343 106 -44 2 -124 0 -177 -4z m370 -35 c43 -12 69
-30 141 -97 49 -45 89 -85 90 -89 1 -4 -31 2 -70 13 -40 11 -93 19 -118 18
-55 -3 -81 10 -117 56 -14 19 -30 32 -35 29 -5 -3 -9 0 -9 7 0 9 -3 9 -14 0
-11 -10 -16 -8 -21 9 -11 34 -28 8 -20 -29 15 -69 78 -111 168 -111 39 0 50
-14 19 -24 -10 -4 -32 -21 -50 -39 -35 -36 -67 -137 -60 -193 4 -36 -1 -41
-20 -22 -22 22 -23 0 -2 -54 12 -29 26 -64 32 -78 9 -23 10 -23 20 -6 9 17 11
16 25 -4 12 -17 13 -24 4 -30 -13 -7 -5 -56 10 -66 19 -11 9 -32 -12 -27 -14
4 -17 8 -9 13 9 6 9 9 0 15 -7 4 -16 2 -20 -5 -4 -6 -28 -13 -53 -15 -26 -1
-63 -12 -82 -24 -34 -20 -75 -28 -75 -15 0 3 12 25 26 50 25 42 21 61 -6 29
-19 -23 -21 -14 -5 30 28 78 14 200 -33 290 -24 47 -72 98 -125 133 -21 14
-34 28 -30 32 4 4 30 13 57 19 27 7 70 23 97 37 38 19 49 30 49 48 0 18 -7 25
-27 29 -15 3 -35 1 -45 -4 -9 -5 -24 -6 -32 -3 -10 4 -30 -6 -51 -25 -34 -29
-117 -61 -159 -61 -20 1 -20 1 -3 14 10 8 27 11 38 9 19 -5 20 -4 8 16 -17 26
-21 26 -43 2 -10 -11 -32 -25 -49 -31 -18 -7 -41 -16 -52 -20 -11 -5 -42 -11
-68 -14 l-49 -6 29 33 c63 74 170 138 262 158 63 13 293 26 376 21 33 -2 84
-10 113 -18z m-467 -243 c93 -35 163 -130 189 -258 19 -90 -24 -183 -102 -219
-55 -25 -167 -15 -239 21 -157 79 -200 121 -215 212 -10 66 29 198 68 231 8 6
39 18 69 27 67 19 156 13 230 -14z m706 3 c85 -19 125 -44 163 -98 40 -59 53
-120 48 -221 -5 -88 -18 -119 -40 -97 -30 30 -119 -2 -133 -48 -4 -11 -15 -25
-26 -31 -16 -8 -26 -5 -55 20 -40 36 -71 45 -123 38 -41 -5 -39 -8 -108 125
-28 55 -35 78 -34 127 0 70 31 152 69 181 31 25 140 27 239 4z m-1069 -75
c-24 -46 -35 -142 -24 -202 3 -19 22 -60 41 -92 41 -67 34 -90 -13 -44 -37 36
-53 31 -30 -9 9 -16 14 -40 11 -58 -4 -27 -1 -32 29 -44 43 -17 41 -15 28 -40
-7 -13 -13 -91 -15 -200 -1 -98 -7 -186 -13 -195 -33 -60 -92 195 -99 430 -8
240 27 453 79 489 31 22 32 14 6 -35z m1352 -354 c27 -100 39 -389 21 -475
-11 -53 -83 -183 -116 -210 -30 -25 -8 114 32 202 31 68 35 84 29 130 -12 106
-22 157 -37 174 -9 12 -10 15 -1 10 15 -9 62 -100 62 -120 0 -22 17 -28 22 -8
9 33 -43 124 -92 163 -34 27 -38 27 -132 22 -85 -5 -96 -8 -89 -22 5 -9 12
-45 16 -81 4 -40 19 -89 37 -127 29 -59 30 -66 21 -128 -6 -38 -6 -90 -1 -123
8 -57 8 -166 0 -208 -3 -16 -22 -31 -68 -53 -36 -17 -68 -31 -71 -31 -3 0 -3
25 -1 55 3 38 14 69 36 105 89 143 94 300 16 449 -32 61 -34 62 -34 31 0 -21
8 -43 22 -57 16 -17 24 -46 34 -117 16 -113 7 -160 -56 -297 -26 -56 -40 -100
-40 -127 0 -22 -5 -44 -10 -47 -6 -4 -34 -9 -64 -12 l-53 -5 -6 47 c-4 26 -7
103 -7 171 0 120 1 124 30 166 40 59 48 94 21 101 -18 4 -19 9 -11 39 12 42 5
79 -17 96 -22 16 -34 15 -61 -4 -50 -35 -70 -128 -85 -404 l-12 -205 -37 -3
-38 -3 0 172 c0 161 2 177 25 235 14 34 32 90 41 124 14 56 14 63 -1 86 -13
20 -23 25 -52 22 -32 -3 -37 -7 -60 -63 -14 -33 -26 -61 -27 -62 -5 -5 -116
22 -116 28 0 4 7 23 15 42 8 20 15 63 15 96 l0 59 36 7 c21 3 47 13 59 21 20
13 29 13 76 0 45 -12 49 -14 23 -15 -35 -1 -84 -34 -84 -57 0 -20 13 -17 28 6
9 15 23 20 52 20 39 0 112 -29 125 -50 8 -13 55 -13 55 0 0 5 -16 16 -35 24
-19 8 -35 17 -35 20 0 3 16 2 35 -1 23 -4 35 -2 35 6 0 6 -6 11 -13 11 -7 0
-21 6 -30 13 -16 11 -14 15 19 41 l36 29 43 -22 c23 -11 51 -21 63 -21 11 0
30 -12 42 -27 l22 -28 -4 34 c-2 28 -10 38 -40 55 -21 12 -45 31 -53 44 -15
20 -15 23 -1 28 29 11 82 -6 111 -36 16 -16 43 -33 62 -36 44 -8 100 3 107 21
4 12 -2 14 -34 9 -22 -4 -40 -4 -40 -1 0 4 14 22 31 42 35 40 70 46 96 15 10
-11 23 -20 31 -20 18 0 42 61 42 107 1 51 13 29 40 -72z m-1171 -43 c89 -43
159 -58 217 -45 40 9 44 9 38 -6 -4 -9 -7 -56 -5 -104 1 -55 -4 -108 -13 -140
-8 -29 -17 -72 -21 -97 -4 -25 -22 -76 -41 -115 -43 -92 -51 -149 -29 -215 9
-28 15 -53 12 -56 -2 -3 -16 0 -30 7 -30 13 -47 69 -47 152 0 63 17 123 77
277 41 103 45 119 39 169 -7 55 -28 101 -46 101 -6 0 -10 -6 -10 -14 0 -20
-30 -29 -36 -11 -4 8 -10 12 -16 9 -6 -4 -7 -37 -3 -83 5 -60 4 -72 -6 -57 -9
15 -16 72 -19 159 0 5 -10 1 -22 -7 -24 -17 -58 -6 -58 20 0 9 -6 14 -12 11
-8 -2 -12 -17 -10 -36 2 -18 -1 -38 -6 -44 -23 -29 -45 -120 -53 -226 -10
-136 -18 -181 -31 -181 -11 0 1 408 13 432 16 30 10 47 -23 65 l-33 17 25 6
c14 4 24 12 23 18 -2 7 8 12 22 12 14 0 25 5 25 11 0 6 3 9 8 7 4 -2 36 -18
71 -36z m1065 -137 c29 -38 36 -59 46 -131 l12 -86 -38 -86 c-26 -58 -41 -109
-45 -152 -4 -45 -15 -81 -35 -115 l-29 -50 -3 50 c-1 28 -6 93 -12 146 -8 80
-7 104 6 143 l16 46 -36 70 c-31 60 -36 78 -36 139 l0 71 60 0 c58 0 59 -1 94
-45z m-1023 -27 c10 -29 18 -63 19 -74 0 -12 7 -27 15 -34 27 -22 37 -1 33 74
-3 68 -2 71 20 74 66 10 67 -69 3 -238 -55 -146 -78 -264 -65 -329 6 -28 8
-51 5 -51 -32 0 -156 133 -168 179 -3 13 -1 58 6 100 6 42 11 108 11 147 0 61
5 81 30 130 30 56 58 89 68 79 3 -2 13 -28 23 -57z m243 -268 c19 -22 38 -50
41 -63 9 -34 2 -324 -8 -333 -4 -4 -35 1 -70 12 l-62 20 -17 70 c-22 84 -17
121 28 214 19 39 34 83 34 96 0 34 12 30 54 -16z"/>
<path d="M691 1858 c-71 -37 -141 -106 -141 -141 0 -42 30 -114 65 -154 45
-53 120 -77 216 -71 77 6 92 15 120 69 31 61 26 135 -15 213 -19 36 -41 72
-48 79 -47 47 -112 49 -197 5z m171 -20 c35 -24 52 -56 73 -136 12 -49 13 -71
5 -102 -28 -103 -187 -121 -290 -33 -50 43 -71 82 -72 135 -1 50 41 96 127
139 67 34 107 33 157 -3z"/>
<path d="M661 1744 c-51 -43 -38 -120 26 -153 35 -18 87 -13 111 9 44 41 18
139 -41 160 -45 15 -63 12 -96 -16z"/>
<path d="M1374 1901 c-23 -10 -52 -34 -65 -52 -21 -29 -24 -46 -24 -114 0 -69
4 -85 25 -118 34 -51 108 -87 179 -87 111 0 168 36 191 119 21 79 -55 201
-155 247 -60 29 -97 30 -151 5z m129 -17 c32 -11 58 -29 81 -57 81 -100 93
-149 54 -207 -93 -135 -338 -56 -338 110 0 60 34 118 85 147 48 27 58 28 118
7z"/>
<path d="M1404 1821 c-30 -13 -64 -59 -64 -87 0 -61 92 -106 167 -81 l38 12 0
58 c0 44 -5 62 -21 78 -23 23 -88 34 -120 20z"/>
</g>
</svg>
