<?xml version="1.0" standalone="no"?>
<!DOCTYPE svg PUBLIC "-//W3C//DTD SVG 20010904//EN"
 "http://www.w3.org/TR/2001/REC-SVG-20010904/DTD/svg10.dtd">
<svg version="1.0" xmlns="http://www.w3.org/2000/svg"
 width="1600.000000pt" height="1000.000000pt" viewBox="0 0 1600.000000 1000.000000"
 preserveAspectRatio="xMidYMid meet">
<metadata>
Created by potrace 1.13, written by Peter Selinger 2001-2015
</metadata>
<g transform="translate(0.000000,1000.000000) scale(0.100000,-0.100000)"
fill="#000000" stroke="none">
<path d="M7645 9580 c-3 -5 -28 -10 -55 -10 -33 0 -50 -5 -54 -15 -4 -11 -21
-15 -64 -15 -32 0 -62 -4 -67 -9 -6 -5 -37 -12 -70 -15 -103 -8 -175 -22 -187
-34 -7 -7 -24 -12 -39 -12 -15 0 -31 -4 -34 -10 -3 -5 -21 -10 -40 -10 -18 0
-55 -9 -82 -21 -26 -11 -79 -30 -118 -41 -66 -18 -97 -26 -197 -47 -24 -5 -56
-14 -73 -19 -16 -6 -50 -16 -75 -22 -25 -6 -58 -18 -73 -26 -16 -8 -41 -14
-55 -14 -65 0 -247 -81 -364 -161 -15 -11 -36 -19 -46 -19 -10 0 -27 -9 -37
-20 -10 -11 -27 -20 -38 -20 -10 0 -28 -11 -39 -25 -12 -16 -30 -25 -47 -25
-16 0 -45 -11 -65 -25 -20 -14 -47 -25 -60 -25 -13 0 -44 -16 -69 -35 -25 -19
-55 -35 -65 -35 -11 0 -25 -7 -33 -16 -7 -8 -32 -25 -56 -37 -47 -24 -134 -94
-257 -206 -45 -40 -116 -106 -159 -145 -158 -143 -277 -260 -277 -272 0 -8
-16 -14 -37 -16 -30 -2 -42 -10 -58 -35 -11 -18 -25 -32 -31 -33 -6 0 -19 -21
-29 -46 -10 -27 -44 -74 -80 -113 -65 -68 -105 -136 -124 -209 -11 -39 -14
-42 -45 -42 -36 0 -38 -2 -91 -147 -14 -39 -33 -77 -41 -83 -8 -7 -14 -20 -14
-30 0 -9 -11 -34 -25 -54 -14 -20 -25 -41 -25 -47 0 -5 -23 -55 -51 -112 -29
-56 -69 -149 -89 -207 -33 -93 -52 -143 -80 -215 -16 -43 -30 -92 -30 -107 0
-9 -7 -29 -15 -44 -8 -16 -15 -39 -15 -51 0 -12 -4 -24 -9 -27 -5 -3 -11 -18
-14 -33 -3 -16 -13 -59 -22 -98 -17 -71 -31 -148 -42 -220 -3 -22 -10 -45 -15
-52 -13 -17 -38 -112 -38 -148 0 -17 -4 -35 -8 -40 -5 -6 -15 -30 -22 -55 -8
-25 -20 -54 -27 -65 -7 -11 -13 -35 -13 -54 0 -35 -46 -188 -61 -205 -5 -6 -9
-31 -9 -57 0 -26 -4 -50 -9 -53 -17 -11 -40 -194 -45 -361 -4 -125 -11 -186
-26 -220 -5 -11 -11 -36 -14 -55 -3 -19 -9 -60 -15 -90 -5 -30 -8 -145 -6
-255 2 -110 3 -225 4 -257 0 -31 5 -59 10 -63 7 -4 11 -72 11 -190 0 -112 4
-186 10 -190 5 -3 10 -21 10 -39 0 -19 7 -47 15 -62 8 -16 15 -43 15 -60 0
-16 14 -51 30 -77 17 -26 30 -54 30 -62 0 -7 4 -17 10 -20 5 -3 21 -28 34 -55
22 -44 34 -86 53 -185 3 -16 9 -34 13 -40 5 -5 25 -53 45 -105 20 -52 43 -102
51 -111 8 -8 14 -23 14 -32 0 -9 12 -31 28 -49 36 -44 87 -119 95 -141 4 -9
13 -17 22 -17 9 0 15 -9 15 -23 0 -13 12 -34 26 -48 15 -13 51 -58 81 -99 31
-41 64 -84 74 -95 95 -103 209 -263 209 -294 0 -11 3 -12 11 -4 13 13 85 -31
94 -56 3 -9 23 -28 45 -43 21 -15 56 -51 78 -80 44 -59 165 -178 181 -178 5 0
18 -13 27 -30 10 -16 21 -25 24 -19 11 16 62 -31 57 -52 -3 -12 2 -20 13 -24
11 -3 41 -30 69 -60 28 -31 51 -49 53 -43 7 19 58 -18 58 -41 0 -39 51 -111
98 -137 26 -15 58 -35 72 -45 59 -45 202 -140 218 -146 15 -6 15 -4 -2 15 -11
12 -23 22 -28 22 -10 0 -100 63 -146 102 -18 15 -52 37 -75 49 -73 37 -135
109 -93 109 7 0 19 -6 25 -13 6 -8 28 -19 49 -25 21 -6 53 -27 72 -47 19 -19
44 -35 56 -35 12 0 27 -7 35 -16 7 -9 44 -32 83 -52 126 -66 145 -78 168 -99
13 -11 48 -33 78 -48 30 -15 84 -44 120 -65 36 -21 82 -43 102 -49 20 -7 42
-19 48 -27 7 -7 21 -14 31 -14 11 0 36 -16 57 -35 37 -32 119 -75 146 -75 7 0
21 -9 31 -20 10 -11 28 -20 40 -20 13 0 27 -6 33 -13 6 -7 39 -26 74 -41 88
-40 98 -44 139 -51 21 -3 42 -12 49 -20 10 -13 8 -15 -13 -15 -14 0 -29 5 -32
10 -3 6 -16 10 -29 10 -27 0 -166 46 -180 60 -6 6 -20 10 -32 10 -12 0 -46 11
-75 24 -30 13 -76 26 -102 30 -27 4 -77 18 -113 32 -35 13 -64 20 -64 15 0
-12 65 -36 175 -65 50 -13 128 -38 175 -56 111 -42 247 -81 285 -83 17 0 39 3
49 8 16 7 18 5 13 -9 -6 -16 -1 -17 55 -14 57 3 65 0 84 -21 18 -22 31 -25 90
-27 42 -1 85 -9 109 -20 40 -18 40 -18 12 -22 -16 -2 -49 4 -74 12 -26 9 -48
14 -50 12 -11 -10 59 -46 90 -46 20 0 39 -4 42 -10 3 -5 15 -10 26 -10 10 0
28 -5 38 -12 11 -7 26 -8 37 -3 16 8 15 9 -11 13 -16 2 -34 8 -40 13 -12 12
53 12 107 -1 24 -5 55 -12 71 -15 15 -3 27 -10 27 -17 0 -7 -19 -9 -62 -4 -50
5 -60 4 -50 -6 8 -8 40 -13 81 -13 51 0 67 -3 64 -12 -4 -9 8 -13 38 -14 65
-1 176 -22 191 -37 6 -6 27 -12 44 -12 18 0 36 -4 39 -10 3 -5 21 -10 39 -10
18 0 55 -7 82 -15 27 -8 75 -15 106 -15 31 0 60 -5 63 -10 3 -6 43 -10 89 -10
52 0 87 -5 95 -13 18 -18 604 -18 623 0 14 15 54 17 63 3 3 -6 42 -10 85 -10
43 0 82 4 85 10 3 5 23 10 44 10 20 0 41 4 46 8 6 5 64 25 130 46 66 20 147
46 180 58 33 11 83 23 110 27 28 4 59 12 70 18 59 32 204 75 305 89 19 3 44 9
55 14 11 5 58 25 105 44 145 59 226 93 246 105 10 6 48 24 84 41 36 16 90 44
121 62 99 58 203 120 229 138 14 9 44 27 67 40 39 21 91 82 106 123 4 9 13 17
22 17 8 0 15 6 15 13 0 16 108 128 161 167 44 32 103 112 159 218 18 34 36 62
41 62 4 0 31 22 61 48 29 27 63 54 75 61 13 7 30 34 44 71 12 32 30 67 40 76
11 9 19 27 19 38 0 13 11 28 29 39 15 9 63 68 105 131 42 63 83 120 91 126 8
7 15 21 15 32 0 18 49 83 113 151 15 15 27 37 27 47 0 10 5 22 10 25 6 3 10
13 10 22 0 8 13 32 28 52 34 43 82 142 82 168 0 11 13 39 28 64 15 24 38 78
52 119 13 41 27 79 32 84 4 6 8 19 8 31 0 12 4 25 10 31 5 5 13 56 16 112 4
57 11 105 16 108 4 3 8 23 8 44 0 21 5 42 10 45 6 3 10 22 10 41 0 20 5 45 11
56 6 11 15 100 20 197 10 210 18 283 30 296 5 5 9 57 9 116 0 61 4 111 10 114
6 4 10 53 10 115 0 64 4 111 10 115 6 4 10 36 9 73 -2 104 25 360 41 397 5 11
11 49 14 85 3 36 7 85 10 110 3 25 8 74 11 110 3 36 10 74 15 85 9 18 20 174
20 285 1 82 -11 205 -21 215 -5 5 -9 59 -10 120 0 89 -2 105 -11 85 -11 -24
-12 -23 -18 20 -4 25 -24 80 -45 123 -20 43 -40 99 -43 125 -3 27 -12 54 -23
65 -10 9 -21 39 -25 67 -4 28 -11 53 -15 56 -5 3 -9 15 -9 28 0 13 -9 31 -20
41 -11 10 -20 30 -20 45 0 15 -7 33 -15 40 -8 7 -15 19 -15 27 0 7 -11 35 -24
61 -16 32 -25 71 -28 122 -3 41 -13 89 -22 105 -10 19 -16 54 -16 93 0 93 -43
208 -86 234 -18 10 -37 33 -43 49 -10 30 -39 66 -173 214 -36 41 -78 99 -93
130 -15 30 -41 72 -57 92 -15 20 -31 48 -35 62 -3 14 -14 35 -24 46 -15 17
-72 113 -116 197 -8 15 -19 30 -24 33 -5 4 -35 41 -66 83 -31 42 -60 78 -64
80 -4 2 -50 38 -101 80 -52 42 -117 95 -144 117 -27 21 -70 57 -96 80 -25 22
-79 67 -118 100 -40 33 -93 79 -118 103 -25 23 -52 42 -60 42 -8 0 -30 14 -49
30 -18 17 -38 30 -44 30 -5 0 -27 11 -47 25 -20 14 -58 32 -84 41 -27 9 -46
19 -43 24 4 7 33 3 94 -16 18 -5 23 -4 19 7 -5 16 -81 32 -122 24 -22 -4 -27
-2 -22 10 3 10 -1 15 -12 15 -23 0 -135 36 -171 55 -17 8 -41 15 -54 15 -13 0
-32 9 -42 20 -11 12 -31 20 -50 20 -20 0 -35 6 -39 15 -3 8 -15 15 -26 15 -11
0 -31 7 -43 15 -21 14 -104 46 -277 107 -46 16 -96 36 -111 44 -24 12 -71 23
-177 41 -18 3 -35 9 -38 14 -3 5 -23 9 -44 9 -21 0 -42 5 -45 10 -3 6 -28 10
-54 10 -26 0 -51 4 -56 9 -6 6 -41 13 -80 16 -38 4 -79 10 -90 15 -56 24 -146
50 -190 55 -51 6 -114 21 -150 35 -28 12 -68 20 -147 30 -37 5 -76 13 -87 19
-11 6 -67 11 -125 11 -59 0 -108 4 -111 10 -4 6 -83 10 -205 10 -122 0 -201
-4 -205 -10z m310 -196 c61 -2 119 -9 130 -14 11 -5 49 -12 85 -15 36 -3 92
-8 125 -11 33 -3 179 -9 325 -13 l265 -8 98 -36 c55 -21 112 -37 127 -37 16 0
31 -4 34 -9 9 -14 102 -38 191 -50 100 -12 147 -21 160 -31 6 -4 36 -15 67
-24 32 -10 60 -22 64 -27 3 -5 16 -9 29 -9 13 0 27 -4 30 -10 3 -5 16 -10 28
-10 23 0 83 -19 104 -33 7 -4 35 -11 62 -14 30 -3 57 -13 67 -24 10 -11 23
-19 31 -19 21 0 154 -69 188 -98 37 -31 143 -82 170 -82 12 0 50 -29 90 -70
38 -38 77 -70 85 -70 9 0 27 -11 40 -25 15 -16 34 -25 53 -25 22 0 42 -14 85
-57 31 -32 61 -58 67 -59 12 -1 45 -13 65 -23 8 -5 16 -18 18 -30 3 -17 8 -20
23 -16 14 5 19 2 19 -14 0 -13 11 -26 30 -36 16 -8 33 -21 37 -28 4 -7 29 -30
55 -50 25 -21 74 -78 109 -127 34 -49 70 -91 79 -93 9 -2 42 -38 73 -78 30
-41 80 -102 111 -136 36 -39 56 -70 56 -85 0 -14 11 -35 25 -48 14 -13 25 -33
25 -45 0 -12 14 -34 30 -50 17 -16 30 -34 30 -41 0 -6 6 -14 14 -17 7 -3 16
-19 19 -36 4 -17 18 -48 31 -68 19 -27 23 -41 16 -54 -20 -36 -12 -73 19 -90
36 -21 78 -84 119 -179 18 -41 42 -93 54 -114 22 -42 96 -244 104 -286 3 -14
9 -34 14 -45 5 -11 11 -36 14 -55 13 -92 25 -133 44 -160 15 -20 22 -44 22
-74 0 -35 7 -54 35 -90 19 -26 35 -51 35 -56 0 -17 77 -165 93 -178 11 -10 16
-60 22 -242 4 -127 11 -233 17 -236 9 -6 5 159 -7 284 -4 39 -3 62 3 62 20 0
41 -335 23 -353 -14 -14 -15 -357 -1 -357 6 0 10 -18 10 -40 0 -22 -4 -40 -10
-40 -5 0 -10 18 -10 40 0 22 -5 40 -11 40 -7 0 -9 -17 -4 -52 14 -115 16 -221
6 -231 -6 -6 -11 -31 -11 -56 -1 -26 -5 -66 -11 -91 -6 -25 -13 -58 -16 -75
-3 -16 -9 -34 -12 -40 -27 -38 -53 -186 -58 -325 -2 -63 -8 -124 -13 -135 -5
-11 -11 -42 -14 -70 -2 -27 -9 -72 -15 -100 -6 -27 -13 -68 -16 -90 -2 -22 -7
-62 -10 -90 -3 -27 -10 -59 -15 -70 -13 -31 -21 -71 -32 -175 -5 -52 -17 -113
-25 -135 -14 -38 -18 -56 -43 -188 -6 -31 -17 -83 -26 -115 -26 -95 -54 -215
-55 -242 -3 -34 -28 -129 -53 -198 -28 -79 -32 -102 -16 -102 6 0 10 7 10 15
0 8 11 47 24 87 14 40 38 139 55 220 55 264 88 359 77 223 -21 -269 -31 -325
-56 -325 -5 0 -10 -15 -10 -34 0 -19 -4 -37 -9 -41 -5 -3 -15 -22 -22 -43 -6
-20 -18 -45 -26 -54 -10 -11 -13 -26 -9 -43 6 -22 3 -25 -19 -25 -19 0 -25 -5
-25 -22 0 -21 0 -21 -15 -2 -13 17 -14 18 -15 1 0 -25 -77 -177 -105 -207 -12
-14 -33 -56 -46 -94 -15 -45 -29 -70 -41 -74 -10 -2 -43 -43 -75 -91 -32 -47
-72 -104 -90 -127 -18 -23 -33 -45 -33 -50 0 -5 -10 -14 -22 -19 -12 -6 -35
-32 -51 -60 -34 -58 -114 -155 -166 -203 -40 -36 -121 -85 -129 -78 -12 13 11
38 54 57 33 16 56 37 79 73 18 28 50 67 70 86 20 19 45 51 55 70 11 19 52 70
93 113 41 42 70 77 65 77 -9 0 -37 -27 -118 -115 -15 -16 -42 -52 -60 -78 -17
-27 -38 -51 -45 -53 -7 -3 -32 -32 -55 -65 -25 -36 -65 -75 -101 -99 -32 -23
-59 -47 -59 -55 0 -8 -5 -15 -11 -15 -6 0 -9 -9 -6 -20 4 -17 2 -18 -16 -9
-18 10 -20 9 -9 -2 17 -18 15 -34 -3 -19 -18 15 -20 -1 -2 -19 10 -11 8 -11
-13 -1 -23 12 -24 12 -11 -3 15 -19 1 -23 -17 -5 -9 9 -12 9 -12 1 0 -7 4 -15
10 -18 6 -4 5 -11 -3 -20 -9 -10 -15 -10 -26 -1 -12 9 -13 8 -8 -7 5 -15 2
-16 -21 -10 -25 6 -26 5 -12 -12 14 -17 13 -18 -4 -12 -13 5 -17 3 -13 -7 4
-10 1 -13 -9 -9 -10 4 -12 0 -7 -13 6 -17 5 -18 -12 -4 -17 14 -18 14 -6 -8
12 -22 11 -23 -8 -13 -13 8 -22 8 -26 1 -4 -6 -11 -8 -16 -5 -12 8 -12 -2 1
-24 7 -15 1 -24 -36 -49 -24 -18 -52 -32 -62 -32 -10 0 -42 -25 -72 -55 -30
-30 -58 -55 -63 -55 -4 0 -36 -19 -70 -41 -71 -48 -309 -169 -331 -169 -8 0
-18 -5 -21 -10 -3 -6 -14 -10 -24 -10 -10 0 -23 -6 -29 -13 -6 -7 -34 -19 -61
-27 -35 -9 -63 -26 -93 -57 -24 -24 -52 -43 -64 -43 -11 0 -29 -9 -40 -21 -29
-32 -84 -57 -158 -70 -36 -7 -66 -16 -66 -21 0 -4 7 -8 15 -8 8 0 15 -5 15
-11 0 -11 -28 -9 -64 6 -15 7 -17 5 -12 -13 6 -17 1 -21 -23 -27 -17 -4 -33
-11 -36 -16 -4 -5 -24 -9 -45 -9 -21 0 -41 -4 -44 -9 -3 -5 -20 -11 -38 -14
-18 -4 -49 -9 -68 -12 -48 -8 -110 -27 -140 -42 -30 -15 -180 -18 -180 -3 0 6
21 11 48 11 33 2 38 3 17 6 -49 8 -139 -7 -126 -20 18 -18 13 -29 -8 -17 -25
13 -118 13 -126 0 -8 -12 -157 -13 -170 -1 -16 15 -89 22 -350 32 -247 9 -301
17 -392 56 -17 7 -60 13 -96 13 -37 0 -69 5 -73 11 -3 6 -20 9 -36 7 -27 -4
-149 29 -165 45 -3 4 -16 7 -28 7 -12 0 -30 7 -41 15 -10 8 -28 15 -39 15 -23
0 -91 23 -101 33 -4 4 -18 7 -30 7 -13 0 -26 5 -29 10 -3 6 -17 10 -30 10 -23
0 -97 21 -140 40 -11 5 -33 11 -50 15 -16 3 -48 11 -70 16 -22 6 -53 12 -70
13 -44 3 -161 34 -180 47 -5 3 -50 20 -100 37 -49 17 -126 45 -170 62 -107 42
-177 65 -255 86 -37 10 -78 29 -95 44 -16 15 -48 37 -70 50 -100 59 -201 130
-213 149 -7 12 -22 21 -36 21 -22 0 -104 53 -131 84 -5 6 -35 22 -65 35 -30
14 -78 42 -106 62 -28 21 -68 45 -89 53 -32 14 -95 62 -142 109 -7 6 -22 20
-32 31 -10 10 -32 32 -49 48 -16 17 -37 38 -46 47 -10 9 -30 30 -46 46 -17 17
-34 35 -40 40 -5 6 -20 21 -32 34 -97 102 -246 243 -313 294 -167 127 -248
214 -284 302 -2 6 -19 30 -38 54 -18 25 -36 56 -40 70 -4 14 -27 53 -53 86
-26 33 -49 74 -53 90 -6 32 -57 121 -101 180 -14 18 -26 38 -26 43 0 10 -40
102 -97 221 -19 40 -45 105 -57 145 -13 39 -33 90 -44 113 -12 23 -22 55 -22
70 0 16 -9 45 -20 66 -11 20 -20 52 -20 71 0 19 -4 38 -10 41 -5 3 -10 17 -10
30 0 13 -4 27 -10 30 -5 3 -10 23 -10 43 -1 20 -7 55 -15 77 -16 44 -20 200
-6 209 5 3 12 81 16 173 4 93 11 173 15 178 8 10 16 79 26 215 2 41 9 84 14
95 10 22 15 56 31 185 5 47 14 94 19 105 5 11 11 56 14 100 5 93 19 193 35
250 6 22 11 58 11 81 0 22 4 44 8 50 5 5 19 43 32 84 13 41 34 85 47 98 13 13
23 33 23 46 0 13 7 37 15 52 8 16 15 41 15 56 0 15 5 30 10 33 6 3 10 24 10
45 0 21 5 42 10 45 5 3 10 16 10 29 0 12 6 42 14 67 7 24 19 64 26 89 6 25 20
73 31 106 10 34 19 77 19 95 1 19 7 52 15 74 8 22 15 55 15 73 0 18 4 40 9 50
18 35 33 100 27 118 -3 11 3 43 14 72 11 28 29 75 40 103 10 28 26 59 35 69 8
9 15 26 15 37 0 11 7 26 16 34 9 7 28 38 44 68 15 31 37 64 49 75 11 10 23 34
27 52 3 18 15 40 25 50 10 9 19 23 19 29 0 7 7 18 15 25 8 7 15 23 15 36 0 14
11 32 30 46 18 13 30 31 30 44 0 13 4 25 9 29 9 5 51 76 89 150 8 17 33 56 54
88 21 32 38 63 38 68 0 5 15 33 34 62 18 28 47 75 65 104 18 28 39 57 47 63 7
7 14 21 14 33 0 11 15 36 33 57 17 20 59 70 92 110 129 157 366 374 470 431
36 20 75 45 88 56 12 11 33 24 47 28 14 4 55 23 91 41 37 19 71 34 76 34 6 0
16 7 23 15 7 8 19 15 28 15 8 0 47 16 86 35 39 19 114 50 166 70 52 20 102 41
110 46 31 19 143 69 169 76 14 3 34 14 44 24 10 11 29 19 43 19 14 0 38 10 53
21 16 12 46 25 68 30 21 4 56 13 78 19 22 7 58 14 80 16 22 2 72 8 110 14 39
6 90 13 115 16 25 4 51 11 58 17 7 5 79 12 160 14 81 3 160 10 177 16 16 6 55
10 87 9 32 -2 59 1 63 7 4 7 48 11 110 11 64 0 106 4 111 11 4 7 26 8 63 4 31
-3 106 -8 166 -11z m4141 -5405 c-5 -172 -18 -285 -38 -358 -9 -29 -14 -60
-12 -70 3 -9 -4 -38 -15 -66 -51 -131 -76 -185 -83 -185 -17 0 -9 60 30 230
28 119 32 143 32 173 0 17 6 55 14 83 7 29 24 120 37 203 13 83 27 147 32 142
4 -4 6 -73 3 -152z"/>
<path d="M8755 6860 c-4 -6 -57 -10 -126 -10 -70 0 -119 -4 -119 -10 0 -5 7
-7 15 -4 8 4 15 1 15 -6 0 -9 -8 -10 -27 -4 -33 11 -166 10 -275 -1 -64 -6
-78 -11 -78 -25 0 -15 -14 -18 -92 -25 -131 -11 -292 -18 -518 -22 -131 -3
-197 -8 -202 -16 -5 -8 -13 -8 -30 0 -14 7 -116 13 -263 17 -133 3 -253 10
-269 15 -15 6 -73 11 -130 11 -65 0 -106 4 -114 12 -9 9 -17 9 -34 0 -13 -6
-72 -14 -133 -16 -146 -7 -227 -18 -270 -36 -23 -10 -62 -19 -125 -28 -27 -4
-40 -10 -33 -15 7 -4 50 -1 97 8 46 9 88 15 92 14 5 -1 17 1 27 6 11 4 23 3
30 -4 14 -14 54 -15 62 -1 13 21 130 11 187 -15 29 -14 65 -25 80 -25 15 0 30
-5 33 -10 13 -22 87 -52 112 -45 13 3 39 1 56 -4 18 -5 52 -15 77 -22 25 -7
56 -21 69 -31 27 -20 63 -23 92 -8 13 8 19 7 19 0 0 -7 8 -9 20 -5 22 7 26 -5
8 -23 -9 -9 -6 -12 13 -12 20 0 28 8 39 34 12 31 16 34 33 24 16 -8 23 -6 37
11 12 17 22 21 42 16 15 -4 29 -13 32 -21 3 -8 16 -14 28 -14 21 1 22 2 6 14
-20 15 -23 26 -8 26 6 0 28 12 50 26 l39 26 46 -31 c50 -34 75 -42 36 -12 -40
31 1 57 50 31 13 -7 19 -7 19 0 0 14 76 13 100 -2 14 -9 25 -9 42 -1 13 6 67
11 122 11 56 1 103 5 109 11 14 14 503 15 512 1 8 -12 222 -14 229 -1 3 4 79
11 168 15 220 10 211 9 403 1 153 -6 178 -5 245 13 63 17 85 18 140 10 36 -6
101 -11 145 -13 175 -7 246 -17 258 -36 11 -17 27 -19 184 -19 104 0 174 4
178 10 8 12 82 13 89 1 6 -10 111 -25 164 -24 94 2 93 1 86 27 -5 21 -2 25 23
29 15 2 -2 5 -39 6 -37 0 -70 6 -73 11 -4 6 6 10 24 10 17 0 40 4 53 9 13 5
42 14 66 20 41 12 59 30 25 27 -40 -4 -99 -18 -119 -28 -12 -5 -44 -7 -73 -4
-28 3 -73 9 -100 12 -29 3 -58 1 -70 -5 -17 -10 -21 -9 -21 4 0 8 -4 15 -10
15 -5 0 -10 -6 -10 -14 0 -24 -134 -35 -265 -21 -33 4 -64 11 -70 15 -5 4 -88
11 -183 15 -150 7 -176 10 -191 26 -14 16 -36 19 -141 21 -105 3 -121 5 -100
15 14 6 23 13 20 14 -17 6 -81 11 -195 15 -71 3 -134 9 -139 15 -13 12 -293
12 -301 -1z m102 -110 c24 0 43 -4 43 -10 0 -6 -50 -10 -130 -10 -77 0 -130
-4 -130 -10 0 -5 6 -7 14 -4 8 3 23 1 33 -4 17 -10 17 -11 0 -18 -10 -3 -29
-2 -43 5 -14 6 -40 11 -59 11 -19 0 -37 5 -40 10 -4 7 -12 7 -25 0 -25 -13
-170 -13 -170 0 0 6 15 10 34 10 19 0 38 5 41 10 4 6 77 10 186 10 132 0 179
3 179 12 0 9 3 9 12 0 7 -7 31 -12 55 -12z"/>
<path d="M8084 6490 c-5 -5 -90 -11 -189 -14 -194 -5 -252 -9 -262 -20 -3 -3
57 -6 135 -6 l140 0 12 -35 c9 -27 17 -35 35 -35 13 0 27 -4 30 -10 3 -5 23
-10 43 -10 27 0 48 -8 72 -29 l35 -29 27 20 c30 21 36 14 14 -14 -12 -16 -32
-18 -172 -18 -124 1 -163 4 -178 15 -28 21 -36 19 -36 -10 0 -23 -3 -25 -49
-25 -28 0 -53 5 -56 10 -3 6 -23 10 -43 10 -54 0 -28 -18 58 -41 40 -11 78
-26 86 -33 7 -8 19 -16 26 -19 9 -3 7 -10 -7 -27 l-20 -22 55 7 c30 3 80 8
110 9 75 5 74 4 60 21 -11 13 -7 15 23 15 20 0 39 5 42 10 3 6 16 10 28 10 19
1 18 3 -8 14 -26 12 -28 15 -12 21 11 4 23 3 30 -4 6 -6 39 -10 77 -9 56 1 58
2 18 5 -27 2 -48 8 -48 14 0 16 113 11 138 -7 30 -21 52 -11 52 21 0 25 2 26
33 20 17 -4 38 -12 45 -18 10 -8 19 -5 35 11 l21 22 -22 0 c-12 0 -22 5 -22
10 0 13 33 13 65 -2 30 -13 33 -28 5 -28 -11 0 -20 -5 -20 -12 0 -6 3 -9 6 -5
8 8 117 -31 125 -45 5 -7 11 -9 15 -5 9 9 -25 47 -43 47 -7 0 -13 5 -13 11 0
11 53 8 133 -8 l31 -6 -22 28 c-26 33 -24 40 10 24 20 -9 31 -8 54 5 l29 15
-52 1 c-28 0 -55 5 -58 10 -5 8 46 9 162 5 179 -5 300 -7 386 -4 28 2 76 -1
105 -6 37 -5 52 -4 52 4 0 6 -18 11 -44 11 -25 0 -48 5 -51 10 -3 6 -31 10
-61 10 -30 0 -54 3 -54 8 0 4 136 8 303 10 166 1 316 5 332 9 17 4 53 8 80 10
122 6 195 15 195 24 0 5 -111 9 -266 9 -174 0 -263 3 -259 10 3 6 28 10 56 10
37 0 49 4 49 15 0 12 -4 13 -19 5 -11 -5 -68 -10 -128 -10 -90 -1 -104 -3 -86
-13 18 -10 -10 -12 -145 -10 -92 2 -214 8 -272 14 -68 7 -125 7 -162 1 -35 -5
-63 -5 -73 1 -11 6 -52 6 -104 2 -168 -15 -535 -4 -555 16 -13 12 -49 12 -62
-1z"/>
<path d="M9335 6300 c-3 -5 -19 -10 -36 -10 -16 0 -29 -4 -29 -10 0 -5 11 -10
23 -10 13 0 27 -3 31 -7 8 -9 154 -31 254 -39 62 -6 63 -5 53 14 -6 12 -11 23
-11 26 0 3 70 6 155 6 97 0 155 4 155 10 0 6 -100 10 -279 10 -176 0 -282 4
-286 10 -3 6 -10 10 -15 10 -5 0 -12 -4 -15 -10z"/>
<path d="M6029 6198 c-19 -37 -109 -141 -142 -165 -17 -13 -38 -23 -46 -23
-14 0 -45 -19 -125 -73 -29 -20 -40 -20 -173 1 -42 7 -53 5 -58 -6 -3 -9 -13
-12 -25 -8 -11 3 -29 9 -40 12 -11 4 -20 2 -20 -3 0 -13 60 -33 101 -33 19 0
52 -7 74 -15 22 -8 55 -14 73 -15 55 0 39 -18 -40 -44 -24 -7 -23 -36 1 -36
11 0 23 5 26 10 3 6 25 10 48 9 l42 -1 -45 -21 -45 -21 50 -9 c55 -9 79 -10
235 -1 58 3 109 10 115 15 12 12 85 12 85 -1 0 -6 -14 -39 -32 -73 -35 -70
-45 -108 -59 -221 -10 -86 -13 -96 -31 -78 -18 18 -28 15 -37 -10 -9 -23 -9
-23 -22 5 -12 26 -16 28 -53 23 -66 -10 -71 -9 -111 18 -37 26 -95 35 -95 16
0 -5 9 -10 21 -10 12 0 17 -4 13 -11 -9 -15 -62 -3 -88 19 -11 9 -8 2 8 -17
29 -36 88 -87 109 -94 9 -3 8 -8 -2 -20 -12 -15 -11 -17 9 -17 18 0 20 -3 11
-13 -9 -11 -3 -16 27 -25 33 -10 91 -66 80 -77 -2 -2 -21 0 -41 5 -47 10 -46
-10 1 -26 25 -8 29 -13 20 -22 -9 -9 -7 -12 10 -12 12 0 22 -6 22 -13 0 -21
-11 -27 -30 -15 -10 7 -25 8 -36 3 -18 -8 -17 -9 4 -12 30 -6 28 -19 -4 -27
-19 -5 -24 -11 -19 -26 6 -18 2 -20 -45 -20 -48 0 -51 -2 -45 -21 6 -18 5 -19
-13 -10 -25 13 -144 15 -158 2 -10 -10 -82 -21 -164 -25 -30 -2 -65 -4 -77 -4
-12 -1 -35 -13 -50 -27 l-28 -24 38 -1 c20 0 37 5 37 10 0 7 6 7 19 0 25 -13
98 -13 106 0 3 6 44 10 91 10 49 0 84 -4 84 -10 0 -5 -15 -10 -34 -10 -19 0
-38 -4 -41 -10 -3 -5 -40 -10 -81 -10 -59 0 -74 -3 -74 -15 0 -13 22 -15 135
-15 83 0 135 -4 135 -10 0 -5 -14 -10 -30 -10 -50 0 -100 -33 -100 -66 0 -12
49 -1 64 15 10 11 37 21 67 24 28 4 56 10 63 15 6 5 20 6 31 1 35 -14 52 -10
59 14 7 21 7 21 21 -8 7 -16 16 -38 19 -47 4 -15 17 -18 71 -18 36 0 65 4 65
9 0 11 58 -6 74 -20 6 -5 21 -9 34 -9 13 0 20 -4 17 -10 -3 -5 -17 -10 -31
-10 -17 0 -24 -6 -24 -19 0 -31 21 -81 34 -81 16 0 56 -42 56 -58 0 -7 7 -12
15 -12 9 0 18 -8 21 -17 19 -56 67 -143 96 -173 53 -55 152 -91 243 -89 l50 2
-50 8 c-94 14 -137 27 -153 44 -16 16 -16 17 3 11 11 -3 52 -10 90 -16 39 -6
83 -18 99 -26 34 -17 60 -18 87 -4 16 9 19 7 19 -10 0 -15 7 -20 25 -20 17 0
23 4 19 15 -5 13 -1 13 36 0 37 -13 46 -13 77 0 41 17 67 8 32 -11 l-24 -13
30 -1 c17 0 36 5 43 12 8 8 84 11 249 12 176 1 243 4 258 14 18 11 15 12 -20
7 -92 -13 -166 -17 -182 -9 -18 8 -9 9 158 30 38 4 59 3 63 -5 9 -14 63 -15
71 -1 3 6 19 10 35 10 16 0 32 4 35 10 3 6 18 11 33 11 27 2 27 2 2 6 -14 2
-35 9 -46 14 -15 8 -27 8 -42 0 -12 -6 -34 -11 -49 -11 -63 1 -160 -12 -190
-26 -41 -18 -46 -18 -38 6 8 24 -5 26 -45 5 -27 -14 -30 -14 -30 0 0 19 -14
19 -30 0 -14 -17 -60 -21 -60 -5 0 6 9 10 20 10 12 0 20 7 20 16 0 10 -5 14
-15 10 -46 -19 -50 -19 -37 -5 6 7 12 17 12 21 0 12 -78 10 -85 -2 -4 -7 -12
-7 -25 0 -24 13 -33 13 -25 0 9 -14 -8 -13 -23 2 -18 18 -15 28 10 28 16 0 19
3 11 11 -9 9 -22 4 -52 -20 -31 -24 -41 -29 -41 -17 0 20 -9 20 -31 0 -16 -14
-18 -14 -29 5 -6 12 -7 21 -1 21 5 0 11 -6 14 -12 7 -20 19 -2 21 31 1 16 8
37 17 48 27 32 50 73 41 73 -5 0 -20 -16 -33 -35 -21 -31 -25 -33 -36 -19 -11
15 -13 13 -19 -10 -3 -14 -3 -33 0 -42 4 -10 -4 -19 -27 -29 -38 -16 -46 -12
-25 12 28 31 27 68 -2 83 -17 9 -25 6 -52 -22 -21 -23 -28 -27 -23 -13 4 11
12 32 17 48 10 26 28 38 28 17 0 -16 20 -12 27 6 3 9 0 20 -8 25 -9 6 -10 12
-4 17 35 26 149 181 140 190 -3 4 -10 0 -15 -8 -20 -33 -37 -55 -74 -99 -50
-60 -47 -58 -74 -66 -22 -6 -23 -5 -17 17 4 12 12 26 18 30 7 4 6 12 -3 23 -8
10 -19 32 -26 50 l-11 33 33 -21 c19 -12 34 -28 34 -34 0 -7 5 -13 10 -13 6 0
10 4 10 10 0 5 13 16 29 25 33 16 69 75 47 75 -7 0 -21 -9 -31 -20 -20 -22
-49 -27 -43 -7 9 24 71 57 109 57 21 0 41 5 44 10 4 6 95 10 239 10 230 0 234
0 248 -22 13 -20 18 -21 41 -11 21 10 32 8 63 -7 20 -11 41 -17 45 -14 5 3 24
-6 42 -20 39 -30 107 -60 107 -48 0 5 -23 19 -50 32 -39 18 -47 26 -36 32 10
6 33 1 65 -13 27 -11 58 -19 68 -16 17 4 17 4 -2 11 -11 4 -35 14 -53 22 -18
8 -44 14 -57 14 -13 0 -27 5 -30 10 -3 6 -19 10 -35 10 -16 0 -32 5 -35 10 -4
6 15 10 50 10 30 0 64 6 75 12 16 10 24 10 40 0 11 -6 30 -12 43 -12 23 0 47
-16 47 -32 0 -4 -12 -3 -26 2 -31 12 -54 13 -54 2 0 -5 18 -15 40 -22 22 -7
47 -21 56 -32 21 -22 38 -24 30 -3 -6 16 3 19 28 9 11 -4 14 -14 10 -33 -4
-18 -3 -22 4 -12 5 7 15 10 22 6 6 -4 20 1 31 11 12 11 19 13 19 5 0 -8 7 -10
20 -6 27 9 52 -12 45 -36 -4 -13 -1 -19 9 -19 10 0 16 -9 16 -21 0 -19 2 -20
17 -8 15 13 16 11 10 -13 -6 -22 -1 -33 28 -62 19 -20 35 -40 35 -46 0 -5 5
-10 10 -10 6 0 10 16 10 36 0 30 -3 34 -19 29 -27 -8 -35 11 -17 37 9 12 16
32 17 43 0 13 4 9 12 -14 7 -19 23 -41 37 -50 l25 -16 -23 32 c-12 17 -22 33
-22 36 0 2 14 10 30 17 19 8 30 20 30 33 0 22 -54 76 -114 115 -91 58 -115 99
-52 89 25 -4 36 -1 40 9 3 8 19 14 38 14 l33 1 -34 14 c-18 8 -50 15 -70 15
l-36 0 0 49 c0 34 6 55 19 70 20 22 15 25 -18 12 -17 -6 -19 -16 -17 -69 l2
-62 -35 0 c-35 0 -36 1 -30 28 4 15 11 35 15 44 12 23 11 105 -1 113 -5 3 -10
10 -10 16 0 5 5 9 10 9 6 0 10 -7 10 -17 0 -15 1 -15 18 0 10 10 33 17 50 17
18 0 32 5 32 10 0 6 -18 10 -40 10 l-40 0 0 116 c0 63 5 124 10 135 14 25 37
24 51 -2 10 -20 9 -21 -10 -16 -30 8 -26 -8 6 -22 25 -11 29 -10 46 11 17 20
18 23 3 26 -20 4 -20 11 2 35 17 20 16 20 -26 13 -46 -7 -47 -2 -14 36 13 16
12 18 -11 29 -22 10 -31 9 -52 -5 -25 -17 -55 -16 -55 1 0 13 77 34 96 26 27
-10 -2 35 -36 56 -24 14 -27 20 -17 30 9 10 9 12 -3 10 -8 -2 -26 1 -39 5 -18
6 -26 4 -33 -8 -5 -9 -14 -16 -20 -16 -7 0 -7 5 1 14 8 10 9 16 1 21 -5 3 -10
10 -10 16 0 14 33 11 58 -7 21 -14 22 -14 22 7 0 20 1 21 18 6 9 -8 31 -38 47
-65 17 -28 38 -55 48 -61 14 -9 17 -8 17 11 0 13 -7 32 -15 42 -8 11 -15 27
-15 36 0 9 -15 27 -32 41 l-33 24 110 7 c61 4 144 11 185 16 71 8 72 9 23 10
-52 2 -87 22 -38 22 15 0 35 5 46 10 15 9 17 14 7 29 -10 16 -7 24 15 51 19
22 27 43 27 71 0 22 6 48 12 59 10 15 10 22 0 32 -6 6 -12 29 -12 50 0 43 -25
54 -33 16 l-4 -23 -8 23 c-6 18 -10 20 -16 10 -6 -10 -11 -9 -22 6 -13 17 -14
17 -26 -13 -18 -41 -31 -39 -31 3 0 39 -14 53 -35 36 -11 -9 -15 -9 -15 -1 0
6 -7 11 -15 11 -9 0 -15 -9 -15 -23 0 -37 -26 -63 -79 -81 -55 -18 -131 -21
-131 -6 0 6 15 10 33 10 31 0 118 28 133 43 13 12 -19 7 -84 -13 -40 -12 -97
-21 -150 -22 -68 -1 -75 -3 -29 -5 31 -2 57 -8 57 -13 0 -6 -10 -10 -22 -10
-12 0 -32 -10 -45 -22 l-23 -21 0 21 c0 25 -3 26 -31 11 -16 -8 -26 -7 -46 6
-14 9 -34 15 -44 12 -12 -3 -19 0 -19 9 0 22 -14 17 -68 -26 -59 -48 -81 -52
-50 -10 12 17 28 28 34 26 16 -6 39 20 25 28 -6 4 -8 12 -5 20 7 19 -186 44
-221 28 -33 -15 -42 -15 -27 0 19 19 14 28 -13 28 -27 0 -32 -9 -13 -28 16
-16 -3 -15 -27 2 -11 7 -42 17 -70 20 -55 8 -215 17 -175 10 14 -2 58 -9 98
-15 75 -12 97 -29 38 -29 -20 0 -62 -15 -101 -36 -64 -33 -100 -40 -60 -10 11
8 16 20 12 30 -4 10 -1 16 8 16 8 0 15 5 15 10 0 6 -11 10 -25 10 -14 0 -25 4
-25 8 0 5 -24 6 -52 2 -29 -4 -68 -6 -87 -5 -19 1 -46 -4 -60 -11 -33 -17
-135 -18 -161 -2 -16 10 -24 10 -40 0 -11 -6 -33 -12 -50 -12 -17 0 -39 -5
-50 -12 -15 -10 -26 -10 -53 0 -18 7 -59 12 -90 12 -31 0 -58 4 -61 9 -3 4
-38 12 -77 15 -69 7 -72 6 -101 -20 -19 -19 -41 -29 -65 -31 l-36 -2 21 22
c26 29 53 83 45 91 -12 11 -22 6 -34 -16z m971 -404 c0 -3 -7 -16 -16 -29 -16
-25 -7 -34 13 -14 6 6 19 9 29 7 16 -3 14 -7 -13 -24 l-32 -20 34 -1 c32 -1
36 2 47 39 13 46 53 73 69 47 15 -23 10 -39 -11 -39 -23 0 -24 -4 -10 -31 16
-28 26 -24 77 31 25 28 50 50 54 50 14 0 -9 -50 -46 -101 -19 -25 -35 -50 -35
-54 0 -16 33 21 67 74 l35 55 20 -27 c22 -30 68 -38 68 -12 0 8 5 15 10 15 17
0 11 -43 -11 -79 l-20 -33 44 36 c66 54 87 49 41 -11 -14 -19 -24 -36 -23 -38
9 -8 57 44 63 68 6 25 42 54 53 43 3 -3 -4 -17 -16 -32 -32 -40 -25 -54 9 -16
16 17 32 32 35 32 10 0 4 -36 -10 -54 -19 -25 -19 -36 -1 -36 7 0 19 14 26 31
10 24 18 29 34 25 12 -3 27 -6 34 -6 26 0 10 -19 -25 -31 l-38 -12 30 -10 c41
-13 41 -14 15 -42 -29 -30 -20 -45 9 -16 12 12 21 32 21 46 0 16 6 25 15 25 9
0 19 10 24 22 8 21 11 18 45 -34 20 -31 36 -62 36 -68 0 -5 -14 -10 -32 -10
-29 0 -30 -1 -15 -18 10 -10 17 -26 17 -35 0 -9 5 -17 11 -17 6 0 9 12 7 27
-2 20 2 29 15 31 14 3 17 -4 17 -37 0 -31 -4 -41 -20 -46 -23 -7 -70 18 -70
38 0 6 -9 -2 -19 -20 -11 -17 -30 -34 -43 -37 -13 -4 -40 -12 -61 -18 -47 -14
-55 -6 -34 37 19 41 22 81 6 91 -16 10 -159 -6 -159 -18 0 -10 20 -9 95 7 19
4 37 1 50 -8 20 -15 20 -15 -3 -55 -42 -75 -23 -87 88 -57 30 8 58 15 61 15 8
0 27 -65 34 -117 4 -34 2 -43 -12 -47 -10 -3 -4 -4 12 -2 17 2 40 7 53 11 18
6 22 4 22 -14 0 -18 -6 -21 -40 -21 -22 0 -40 -4 -40 -10 0 -5 14 -10 30 -10
36 0 38 -13 5 -45 -27 -28 -66 -32 -85 -10 -11 13 -8 15 14 15 14 0 26 5 26
10 0 6 -26 10 -58 10 -47 0 -63 -4 -78 -21 -12 -13 -27 -19 -41 -16 -13 2 -28
-2 -34 -10 -10 -11 -6 -13 29 -7 35 5 42 4 52 -17 7 -13 22 -34 33 -46 20 -22
20 -23 2 -43 -24 -27 -73 -26 -130 2 -38 18 -49 20 -65 10 -24 -15 -44 -15
-92 -1 -37 10 -38 10 -22 34 15 23 15 25 0 25 -9 0 -22 -11 -28 -25 -9 -20
-18 -25 -48 -25 -20 0 -42 -6 -49 -12 -10 -11 -17 -8 -36 14 -33 38 -59 40
-63 4 -2 -18 0 -26 7 -21 6 3 11 14 11 23 0 12 3 13 12 4 9 -9 7 -16 -8 -33
-15 -16 -26 -19 -54 -15 -53 9 -54 9 -74 0 -15 -6 -18 -4 -14 7 16 43 19 59 9
59 -6 0 -11 -7 -11 -15 0 -25 -38 -18 -43 8 -3 16 -5 13 -6 -10 -1 -23 3 -33
14 -33 8 0 15 -7 15 -15 0 -11 -11 -15 -36 -15 -32 0 -35 2 -24 15 10 12 10
19 2 27 -7 7 -12 32 -12 56 0 58 -16 46 -19 -15 -1 -26 -9 -55 -17 -64 -8 -8
-14 -21 -14 -27 0 -7 -15 -12 -34 -12 -19 0 -38 -4 -41 -10 -7 -12 -65 -14
-65 -2 0 14 42 77 63 94 12 9 18 20 14 24 -9 10 -66 -44 -78 -73 -10 -28 -34
-21 -54 16 l-14 26 -1 -27 c0 -16 -5 -28 -12 -28 -6 0 -22 -10 -34 -21 -19
-18 -21 -26 -13 -42 8 -14 8 -18 -1 -12 -6 4 -22 8 -36 10 -36 4 -42 14 -18
34 20 16 29 51 12 51 -4 0 -8 -9 -8 -20 0 -18 -3 -19 -21 -10 -12 7 -18 18
-15 26 4 9 -1 13 -17 11 -20 -2 -22 2 -20 37 2 33 1 36 -12 26 -9 -7 -17 -11
-19 -9 -1 2 -12 20 -24 40 -19 32 -20 38 -7 49 18 15 20 46 3 56 -9 6 -5 10
12 14 20 5 25 12 26 40 1 27 1 28 -3 8 -4 -23 -9 -28 -34 -28 l-30 0 3 73 c3
71 3 72 32 75 33 4 106 47 106 62 0 7 -8 7 -22 -1 -18 -10 -24 -8 -35 7 -7 10
-13 26 -13 36 0 19 -15 24 -25 8 -9 -14 -25 -12 -25 3 0 26 37 50 70 45 17 -3
33 -1 36 4 3 4 -2 8 -11 8 -30 0 -5 18 48 36 28 9 57 21 63 25 6 5 19 7 28 3
13 -5 16 0 16 25 0 31 13 41 26 20 4 -7 19 2 41 23 l36 33 -7 -27 c-5 -22 -3
-28 9 -28 12 0 15 -6 10 -20 -5 -15 -2 -20 14 -20 11 0 23 5 26 10 4 6 23 17
43 26 34 14 38 14 49 -2 17 -23 16 -34 -1 -34 -7 0 -19 -7 -26 -15 -10 -12
-10 -15 1 -15 29 1 93 47 138 99 41 48 43 53 21 47 -23 -7 -24 -6 -7 8 16 13
47 12 47 0z m455 -887 c77 -9 142 -17 145 -18 3 -1 -17 -6 -45 -10 -116 -21
-154 -21 -222 -5 -55 14 -82 15 -133 7 -52 -7 -127 -8 -220 -1 -3 0 2 5 10 10
8 5 61 9 118 8 56 0 105 2 109 6 3 3 -12 6 -35 6 -23 0 -42 5 -42 11 0 13 116
8 315 -14z"/>
<path d="M6575 5450 c-3 -5 -17 -10 -30 -10 -14 0 -44 -10 -68 -21 -48 -24
-72 -60 -81 -124 -3 -22 -8 -57 -12 -79 -7 -36 -6 -38 15 -31 17 5 21 2 21
-15 0 -13 5 -20 12 -18 7 3 17 -5 23 -16 11 -21 49 -33 137 -43 36 -4 59 1 97
19 63 29 81 63 81 150 l0 64 -57 56 c-76 73 -121 96 -138 68z m77 -68 c27 -11
71 -83 59 -95 -6 -6 -11 -21 -11 -34 0 -28 -27 -43 -76 -43 -54 0 -84 31 -84
86 0 53 8 74 25 68 7 -3 15 2 18 10 7 16 39 20 69 8z"/>
<path d="M10120 6165 c-9 -27 -17 -35 -36 -35 -13 0 -24 6 -24 13 0 8 -16 12
-45 12 -26 0 -45 -5 -45 -11 0 -19 -49 -35 -71 -24 -16 9 -19 7 -19 -12 0 -28
-17 -12 -22 21 -5 40 -26 36 -39 -8 -13 -44 -25 -52 -32 -23 -3 12 -5 13 -6 2
-2 -22 -45 -39 -66 -27 -13 7 -24 6 -38 -2 -15 -10 -22 -9 -38 5 -17 16 -19
16 -19 1 0 -10 -4 -17 -10 -17 -5 0 -10 6 -10 14 0 7 -6 19 -14 25 -11 9 -15
7 -21 -11 -7 -19 -9 -16 -12 20 -4 42 -23 60 -23 22 0 -11 -4 -20 -10 -20 -5
0 -10 10 -10 21 0 18 -2 19 -15 9 -8 -7 -15 -23 -15 -36 0 -17 -6 -24 -20 -24
-17 0 -20 7 -20 51 0 56 -15 59 -26 4 -3 -19 -9 -35 -13 -35 -16 1 -29 17 -33
40 -3 23 -5 22 -26 -17 -13 -24 -22 -60 -22 -84 0 -39 -9 -78 -31 -136 -5 -13
-16 -23 -26 -23 -13 0 -14 -3 -5 -12 16 -16 81 -38 114 -38 15 0 30 -4 33 -10
3 -5 26 -10 51 -10 24 0 44 5 44 10 0 6 8 10 18 10 16 -1 16 -1 0 -14 -22 -16
-23 -26 -3 -26 11 0 15 -12 15 -49 0 -28 -4 -53 -10 -56 -14 -9 -14 -482 1
-490 5 -4 9 -30 8 -58 -2 -41 6 -71 35 -142 21 -49 48 -117 61 -150 13 -33 38
-91 56 -130 30 -61 34 -66 37 -42 3 27 22 39 22 14 0 -8 9 -22 20 -32 11 -10
20 -25 20 -33 0 -12 2 -12 16 -1 15 12 16 11 9 -11 -4 -14 -10 -30 -12 -37 -3
-6 5 -16 16 -23 19 -9 21 -8 21 15 0 14 6 25 14 25 9 0 12 -8 8 -27 -5 -26 -4
-27 13 -13 17 14 18 13 13 -14 -5 -22 0 -38 19 -63 29 -37 27 -55 -2 -23 -10
11 -25 20 -33 20 -12 0 -9 -7 9 -27 56 -62 55 -61 19 -98 -35 -36 -31 -46 8
-19 l22 15 0 -91 c0 -83 -2 -92 -20 -97 -11 -3 -20 -11 -20 -18 0 -7 -7 -18
-15 -25 -13 -11 -15 -8 -15 14 0 14 -2 26 -5 26 -3 0 -28 -11 -55 -25 -50 -26
-85 -31 -108 -17 -13 9 24 50 66 71 24 13 31 37 7 27 -30 -11 -104 -71 -108
-88 -3 -11 -15 -18 -30 -18 -14 0 -29 -4 -32 -10 -3 -5 -26 -10 -50 -10 -24 0
-56 -5 -70 -12 -18 -8 -32 -8 -48 -1 -17 8 -30 7 -50 -3 -34 -18 -36 0 -2 22
24 15 40 15 99 -3 11 -3 16 -1 12 5 -3 5 -28 15 -54 22 -61 14 -112 45 -112
66 0 20 4 19 133 -36 54 -23 106 -40 115 -38 9 2 -21 19 -68 37 -99 39 -176
76 -185 91 -10 16 9 12 67 -15 46 -22 67 -25 164 -25 101 0 117 3 175 29 35
16 75 31 88 32 32 5 50 34 33 51 -11 11 -18 8 -37 -14 -13 -16 -31 -28 -40
-28 -8 0 -15 -4 -15 -10 0 -5 -6 -10 -14 -10 -7 0 -33 -9 -57 -19 -65 -29
-219 -21 -293 14 -29 14 -59 25 -66 25 -10 0 -10 3 0 15 11 13 7 15 -24 15
-33 0 -36 2 -36 29 l0 29 -31 -16 c-17 -9 -40 -22 -52 -29 -12 -7 -23 -10 -26
-8 -8 9 22 35 40 35 11 0 19 5 19 10 0 6 16 20 37 32 47 28 26 35 -26 9 -22
-12 -43 -21 -46 -21 -3 0 -5 22 -5 49 0 48 0 48 62 90 40 27 54 41 41 41 -28
0 -112 -68 -119 -96 -3 -13 -10 -21 -15 -18 -12 7 -1 -132 13 -169 13 -34 1
-49 -18 -22 -39 58 -41 60 -58 46 -25 -21 -21 11 4 34 21 19 27 60 10 70 -16
10 -11 41 10 60 24 21 25 33 6 54 -15 18 -56 136 -56 163 0 10 -4 18 -10 18
-5 0 -10 -11 -10 -25 0 -14 -4 -25 -10 -25 -5 0 -10 9 -10 19 0 11 5 23 10 26
6 3 10 44 10 91 0 92 10 124 39 124 10 0 26 9 36 20 10 11 13 20 7 20 -7 0
-12 -4 -12 -10 0 -5 -13 -10 -29 -10 -46 0 -72 -62 -71 -169 0 -19 -6 -44 -14
-56 -14 -21 -13 -25 4 -40 22 -20 28 -92 10 -126 -19 -35 -26 -20 -22 46 3 44
1 65 -7 65 -6 0 -11 -16 -11 -35 0 -55 -18 -41 -22 18 -3 32 1 59 9 72 16 24
19 410 3 420 -6 4 -11 -69 -12 -200 -2 -127 -7 -206 -13 -206 -17 -3 -25 74
-10 91 11 12 11 20 2 35 -6 12 -10 56 -9 105 1 47 -2 94 -7 105 -15 36 -31
114 -31 153 0 21 -5 43 -12 50 -13 13 4 62 22 62 14 0 13 -43 -2 -58 -9 -9 -7
-12 10 -12 21 0 22 -4 23 -97 l0 -98 15 45 c17 55 18 160 2 195 -9 19 -9 28 0
37 18 18 16 98 -3 98 -21 0 -21 108 0 136 17 23 20 43 3 26 -16 -16 -25 -15
-32 4 -7 19 51 104 72 104 7 0 12 6 10 13 -8 21 -27 13 -49 -18 l-21 -30 7 40
c4 22 19 64 35 93 27 50 28 60 3 44 -20 -12 -83 -161 -83 -196 0 -11 -8 -28
-17 -39 -17 -18 -17 -19 0 -32 16 -12 15 -16 -12 -71 -20 -39 -26 -60 -18 -63
29 -10 36 -48 11 -58 -40 -15 -46 71 -9 136 14 24 23 46 21 49 -10 9 -34 -7
-55 -37 -20 -27 -20 -30 -4 -24 13 4 11 -2 -9 -24 -32 -33 -35 -43 -13 -43 12
0 35 -54 35 -86 0 -15 -53 -64 -70 -64 -7 0 -10 -3 -6 -7 3 -4 -15 -28 -41
-55 -26 -26 -42 -48 -36 -48 6 0 25 16 42 35 l31 36 11 -28 c6 -15 18 -36 26
-46 13 -14 14 -22 5 -42 -17 -37 -32 -30 -32 15 0 22 -4 40 -10 40 -11 0 -80
-73 -75 -79 2 -2 18 7 34 19 l31 21 0 -26 c0 -14 9 -44 21 -66 l20 -41 -45
-48 c-25 -27 -46 -52 -46 -55 0 -8 53 30 70 49 16 20 30 11 30 -17 0 -12 9
-46 20 -75 25 -65 25 -82 1 -82 -22 0 -45 -24 -39 -41 2 -7 16 -1 35 15 37 31
43 32 43 6 0 -27 -67 -100 -92 -100 -18 0 -18 -2 5 -30 28 -33 42 -68 32 -78
-12 -12 -39 15 -47 46 l-9 32 -24 -27 c-22 -27 -23 -28 -4 -31 26 -5 62 -42
79 -82 l14 -33 -77 -71 c-76 -71 -87 -88 -66 -102 7 -4 0 -17 -17 -35 -17 -18
-22 -29 -13 -28 17 1 86 79 70 79 -6 0 -11 -5 -11 -12 0 -9 -3 -9 -11 -1 -15
15 2 45 40 72 39 28 51 9 14 -23 l-28 -25 25 -9 c22 -8 25 -7 28 14 2 13 10
24 17 24 20 0 30 -21 14 -31 -11 -6 -10 -12 5 -27 16 -18 16 -23 3 -49 -10
-19 -12 -34 -6 -45 6 -11 6 -19 -1 -23 -5 -3 -10 3 -10 14 0 12 -4 21 -10 21
-5 0 -10 12 -10 28 0 15 -4 33 -9 41 -7 11 -14 8 -35 -15 -32 -37 -33 -46 -1
-34 19 7 25 6 25 -4 0 -8 5 -16 12 -18 6 -2 8 -10 4 -16 -5 -8 -19 -10 -43 -6
-21 4 -44 2 -59 -6 -20 -11 -28 -11 -49 0 -19 10 -38 11 -80 3 -38 -6 -58 -6
-65 1 -8 8 -13 7 -18 -1 -4 -6 -24 -23 -45 -37 -28 -19 -37 -22 -37 -11 0 8
-4 15 -10 15 -5 0 -10 -7 -10 -15 0 -8 -5 -15 -12 -15 -6 0 -1 -11 12 -25 13
-14 30 -23 37 -21 7 3 13 1 13 -4 0 -5 -9 -12 -20 -15 -22 -7 -26 -20 -10 -30
13 -8 7 -52 -11 -90 -16 -34 -35 -35 -112 -9 l-42 14 50 -4 c39 -4 56 0 75 15
23 17 23 19 6 19 -16 0 -17 3 -8 12 15 15 16 48 2 48 -6 0 -20 -16 -31 -35
-20 -33 -24 -35 -77 -35 -60 0 -61 10 -1 29 35 11 93 61 72 61 -6 0 -13 -5
-15 -11 -5 -15 -97 -49 -103 -39 -9 14 56 60 101 72 43 12 59 28 28 28 -24 0
-119 -48 -139 -70 -10 -11 -29 -20 -42 -20 -20 0 -22 3 -14 19 8 14 6 23 -9
36 -25 23 -8 52 35 58 28 4 28 5 8 12 -32 10 -19 25 22 25 24 0 38 -6 45 -20
6 -11 18 -20 27 -20 13 0 14 3 5 12 -18 18 -14 31 8 25 11 -3 22 -2 25 3 3 4
-15 11 -40 14 -43 7 -56 18 -36 30 5 4 11 1 13 -5 3 -9 10 -8 28 1 24 13 24
13 -20 26 -25 8 -53 14 -62 14 -10 0 -18 5 -18 10 0 6 11 10 25 10 14 0 25 5
25 10 0 6 -11 10 -25 10 -14 0 -25 4 -25 10 0 14 46 23 87 17 33 -6 34 -5 19
12 -25 28 -20 33 32 31 71 -4 94 -1 87 10 -7 11 -158 14 -169 3 -10 -11 -79
-33 -103 -33 -12 0 -24 -4 -28 -10 -3 -5 -13 -6 -23 -3 -14 5 -15 3 -4 -8 18
-20 15 -29 -13 -29 -14 0 -25 5 -25 12 0 6 -8 3 -20 -7 -14 -13 -17 -22 -10
-35 11 -20 -6 -41 -26 -33 -9 3 -14 -2 -14 -16 0 -13 -11 -26 -31 -36 -21 -11
-29 -21 -25 -32 4 -9 -3 -42 -14 -74 -24 -66 -25 -189 -2 -197 6 -2 12 3 12
12 0 28 17 17 47 -29 29 -46 43 -56 43 -30 0 17 18 19 40 5 13 -8 12 -11 -3
-23 -18 -12 -17 -14 10 -26 34 -16 104 -22 119 -10 18 15 62 -12 60 -38 0 -14
-6 -21 -13 -19 -7 3 -10 -1 -6 -10 4 -10 0 -12 -13 -7 -17 6 -18 5 -4 -12 14
-17 13 -18 -4 -12 -12 5 -23 1 -31 -10 -8 -10 -17 -15 -21 -11 -4 4 -1 14 6
23 11 13 9 15 -12 15 -13 0 -29 5 -36 12 -8 8 -14 5 -22 -16 -5 -15 -10 -31
-10 -36 0 -5 -9 -12 -20 -15 -11 -3 -20 -13 -20 -21 0 -8 -10 -14 -26 -14 -31
0 -28 20 4 35 22 10 31 35 12 35 -5 0 1 17 13 38 l22 37 -29 -18 c-15 -10 -30
-16 -33 -14 -2 3 -16 -1 -30 -8 -14 -7 -32 -11 -39 -8 -9 3 -14 -2 -14 -16 0
-14 -9 -25 -25 -31 -20 -8 -24 -14 -19 -33 4 -17 1 -26 -12 -31 -23 -9 -30 0
-14 19 16 20 1 19 -28 -1 -18 -12 -22 -13 -22 -1 0 17 25 40 64 58 41 19 47
42 9 33 -15 -4 -33 -11 -39 -15 -6 -5 -15 -4 -21 2 -6 6 -19 6 -37 -1 -24 -9
-26 -13 -15 -26 6 -8 18 -13 26 -10 7 3 13 1 13 -3 0 -17 -33 -21 -50 -6 -25
22 -48 20 -27 -3 19 -21 23 -42 5 -24 -14 14 -48 16 -48 3 0 -5 7 -14 15 -21
8 -7 15 -17 15 -23 0 -5 -9 -2 -20 8 -19 17 -21 17 -38 2 -25 -23 -35 -21 -27
3 5 15 0 21 -19 26 -28 7 -70 -12 -60 -27 3 -6 12 -8 20 -5 19 7 18 -8 -1 -24
-13 -11 -19 -9 -38 8 -16 15 -26 18 -39 11 -11 -6 -19 -6 -23 1 -11 18 -25 11
-25 -12 0 -19 -6 -23 -33 -24 l-33 0 38 34 c31 28 41 32 53 22 13 -10 15 -9
15 10 0 22 1 22 19 6 23 -21 25 -20 101 44 l25 21 -25 -6 c-14 -4 -38 -16 -54
-27 -27 -19 -30 -20 -41 -4 -25 34 -115 8 -115 -33 0 -10 -18 -32 -41 -51 -25
-20 -37 -35 -30 -39 7 -5 0 -15 -19 -29 -38 -29 -120 -32 -120 -4 -1 16 -1 16
-11 0 -12 -21 -42 -23 -58 -5 -17 21 0 29 21 10 16 -14 18 -14 18 -1 0 9 21
34 48 57 87 75 92 80 92 92 0 8 -7 6 -18 -4 -25 -23 -53 -21 -59 3 -3 11 -9
20 -13 20 -5 0 -32 -21 -62 -48 -75 -67 -124 -102 -144 -102 -13 0 -11 5 10
21 17 13 26 30 26 48 0 32 16 51 44 51 13 0 17 3 10 10 -17 17 -82 -1 -111
-31 -32 -32 -43 -36 -43 -14 0 19 -10 19 -38 -1 -26 -18 -28 -31 -6 -36 14 -2
13 -8 -9 -34 -24 -28 -67 -51 -67 -36 0 3 12 19 27 34 l27 28 -24 0 -23 0 19
23 c47 53 48 57 23 57 -17 0 -28 -9 -38 -30 -10 -24 -16 -28 -27 -20 -7 7 -18
9 -24 5 -6 -4 -10 6 -10 24 0 17 -4 31 -10 31 -5 0 -10 -7 -10 -15 0 -8 -4
-15 -10 -15 -5 0 -10 16 -10 35 0 24 -5 35 -14 35 -19 0 -29 -17 -16 -25 17
-11 11 -20 -15 -21 -15 -1 -25 3 -25 12 0 8 -7 14 -14 14 -12 0 -13 -6 -4 -31
12 -34 5 -47 -16 -30 -10 8 -16 9 -21 1 -3 -5 -11 -10 -17 -10 -7 0 -6 5 1 14
10 12 8 13 -8 9 -25 -6 -27 4 -4 29 9 10 14 20 11 23 -10 10 -58 -37 -84 -81
-22 -37 -31 -44 -56 -44 l-30 0 32 38 c18 20 44 43 57 50 27 15 29 22 8 22 -9
0 -32 -16 -51 -36 -23 -23 -40 -32 -46 -26 -6 6 -19 1 -35 -15 -18 -19 -28
-22 -36 -14 -18 18 32 64 64 57 22 -4 28 -1 31 19 4 20 2 22 -16 15 -12 -4
-31 -4 -43 1 -15 5 -25 3 -33 -7 -18 -21 -29 -17 -36 11 -8 34 -17 31 -40 -10
-22 -41 -39 -46 -30 -10 7 29 4 31 -30 9 -38 -25 -40 -9 -5 31 37 42 39 57 8
50 -15 -4 -28 -1 -36 9 -12 14 -17 12 -49 -12 -38 -29 -40 -25 -16 33 8 19 7
19 -16 4 -15 -10 -25 -26 -25 -40 0 -27 -28 -37 -50 -19 -11 9 -7 17 23 45 20
18 34 37 29 41 -4 4 -22 -7 -40 -24 -38 -36 -53 -41 -37 -12 13 24 2 26 -28 4
-13 -9 -30 -13 -39 -10 -14 6 -13 10 8 33 l24 25 -25 -7 c-20 -6 -23 -5 -12 6
21 22 15 41 -10 33 -31 -9 -31 -9 -18 -34 20 -38 -4 -45 -41 -12 l-33 29 30
16 c35 18 60 45 50 54 -3 3 -14 -1 -24 -10 -25 -23 -35 -21 -22 2 14 27 13 31
-11 31 -17 0 -20 -5 -17 -35 2 -24 -3 -39 -12 -45 -22 -14 -33 -12 -27 4 3 7
1 18 -4 23 -6 6 -2 16 11 28 24 22 27 50 4 41 -9 -3 -24 -6 -34 -6 -11 0 -25
-12 -33 -26 l-13 -26 -33 37 c-17 20 -34 50 -38 66 -3 16 -10 26 -15 23 -5 -4
-7 -17 -4 -30 4 -13 4 -24 1 -24 -33 0 -94 75 -76 93 13 13 15 67 3 67 -5 0
-17 -7 -28 -15 -31 -23 -49 -18 -103 31 l-52 47 42 24 c33 18 44 21 51 11 5
-9 8 -6 8 10 0 26 -30 31 -50 7 -7 -8 -28 -15 -47 -15 -27 0 -33 4 -31 17 2
12 -7 21 -29 28 -25 8 -30 14 -21 23 9 9 9 18 0 37 -12 27 -46 36 -36 10 7
-19 -10 -20 -25 -2 -8 10 -7 17 1 25 9 9 8 12 -5 12 -11 0 -17 8 -17 24 0 31
-62 86 -96 86 -19 0 -25 4 -20 15 3 10 -7 27 -27 45 -38 35 -51 38 -42 10 6
-17 2 -20 -29 -20 -35 0 -36 -1 -36 -38 0 -27 7 -45 23 -59 26 -24 100 -63
120 -63 8 0 19 -10 26 -22 98 -185 271 -368 547 -580 95 -73 167 -130 244
-193 114 -92 124 -100 131 -98 4 1 20 -9 36 -22 124 -108 149 -125 171 -120
16 4 22 1 22 -11 0 -10 5 -14 15 -10 9 3 20 -3 27 -14 7 -11 18 -20 24 -20 23
0 104 -41 149 -75 25 -19 53 -35 63 -35 10 0 28 -11 41 -24 12 -12 40 -28 61
-35 22 -6 40 -18 40 -25 0 -7 11 -18 25 -24 14 -6 33 -25 43 -41 14 -23 21
-27 35 -19 14 7 25 3 50 -17 61 -51 219 -137 230 -126 18 18 27 13 27 -14 0
-14 -4 -25 -10 -25 -5 0 -44 16 -87 36 -43 19 -114 51 -158 71 -184 82 -303
141 -386 193 -85 53 -143 88 -315 189 -45 26 -103 65 -130 87 -123 101 -178
143 -182 140 -10 -10 23 -48 66 -78 26 -17 82 -60 125 -95 43 -35 110 -79 150
-99 39 -20 112 -62 162 -93 170 -107 271 -160 472 -250 200 -89 247 -113 413
-206 110 -62 291 -134 467 -186 116 -34 272 -59 401 -63 118 -4 107 11 -13 17
-49 3 -115 10 -145 16 -30 6 -85 15 -121 20 -63 9 -268 72 -339 103 -19 9 -63
26 -97 38 -34 12 -68 28 -74 36 -6 8 -18 14 -25 14 -8 0 -14 5 -14 10 0 17 22
12 110 -26 47 -20 102 -42 123 -50 20 -8 45 -18 55 -24 27 -14 136 -50 155
-50 10 0 25 -4 35 -9 9 -5 53 -14 97 -19 44 -6 103 -16 130 -22 48 -11 139
-22 327 -38 95 -8 147 -32 68 -32 l-43 0 19 -22 c19 -21 19 -21 -6 -14 -14 4
-34 10 -46 13 -28 6 -170 -66 -208 -106 -40 -42 -18 -39 45 5 28 19 59 34 70
32 15 -2 4 -14 -45 -50 -35 -27 -71 -51 -80 -54 -9 -3 -16 -12 -16 -20 0 -11
7 -11 38 2 55 24 152 71 192 93 68 39 165 80 205 86 88 14 145 17 145 7 0 -5
-26 -12 -57 -14 -32 -2 -71 -12 -88 -21 -16 -9 -38 -19 -47 -23 -21 -8 -23
-18 -5 -33 10 -8 23 -6 52 9 47 24 98 26 115 5 11 -13 8 -15 -19 -15 -17 0
-31 -4 -31 -10 0 -5 -5 -9 -11 -7 -6 1 -14 -4 -16 -10 -6 -17 59 -17 75 -1 9
9 22 2 57 -34 50 -52 53 -59 26 -73 -94 -50 -121 -67 -121 -75 0 -13 74 24
120 60 19 15 53 37 76 48 22 11 47 28 55 38 12 15 12 16 -7 10 -11 -3 -28 0
-38 7 -17 13 -17 14 8 31 15 9 24 21 20 27 -8 13 14 39 34 39 12 0 13 -3 4
-12 -19 -19 -14 -56 8 -68 12 -6 25 -23 31 -37 8 -23 6 -31 -21 -58 -42 -43
-38 -51 10 -16 21 15 53 34 70 41 28 12 34 11 53 -8 l21 -22 -25 0 c-14 0 -36
-11 -49 -25 -14 -15 -30 -23 -40 -20 -11 3 -17 0 -17 -10 0 -22 18 -19 57 10
42 31 70 33 63 5 -4 -16 0 -20 19 -20 14 0 33 9 43 20 22 25 35 26 35 3 0 -20
-55 -58 -85 -59 -11 0 -27 -4 -35 -9 -12 -7 -10 -10 9 -15 l24 -5 -32 -33
c-18 -17 -28 -32 -23 -32 5 0 15 7 22 15 18 21 40 19 40 -4 0 -11 4 -22 9 -25
15 -10 -12 -55 -34 -58 -12 -2 -31 -23 -47 -53 -35 -64 -36 -90 -2 -47 14 17
34 32 45 32 14 0 18 4 13 13 -5 8 -2 8 9 -2 15 -12 17 -11 17 2 0 22 17 30 47
22 l26 -6 -44 -45 c-52 -53 -41 -59 15 -8 29 27 41 32 47 22 5 -9 -3 -25 -26
-48 -45 -46 -47 -75 -2 -32 51 49 67 38 23 -15 -19 -22 -22 -33 -14 -47 7 -13
5 -21 -9 -32 -14 -12 -15 -17 -5 -21 10 -4 8 -12 -10 -31 l-23 -25 23 6 c20 5
22 2 22 -31 0 -21 -14 -64 -30 -97 -33 -65 -36 -81 -19 -87 8 -3 9 -10 2 -23
-18 -35 -24 -85 -10 -85 13 0 67 123 67 152 0 9 5 20 10 23 6 3 10 27 10 53 0
26 9 72 20 102 11 30 23 84 26 120 4 36 11 70 16 77 11 14 4 205 -11 292 -17
97 -37 147 -97 241 -62 99 -66 115 -26 106 15 -3 51 -9 80 -12 29 -4 55 -11
58 -15 3 -5 25 -9 50 -9 24 0 52 -4 62 -9 36 -18 118 -41 147 -41 l30 1 -25
14 c-14 8 -32 14 -41 15 -9 0 -24 9 -33 19 -18 19 -56 31 -114 34 -19 1 -39
10 -46 20 -10 13 -28 17 -75 17 -39 0 -60 4 -56 10 3 6 17 10 30 10 13 0 27 5
30 10 3 6 61 11 133 12 70 1 103 3 75 5 -61 5 -72 23 -14 23 22 0 42 4 45 9 3
5 20 11 38 14 18 4 48 9 65 13 25 5 34 2 39 -10 7 -18 13 -20 34 -6 13 9 13
11 0 19 -8 6 -11 14 -6 18 5 4 11 2 13 -4 6 -17 54 -16 77 2 11 8 34 15 52 15
17 0 67 9 109 19 43 11 82 18 86 16 6 -4 19 17 19 31 0 2 -12 -1 -27 -7 -51
-21 -94 -28 -90 -16 2 6 57 30 123 52 65 22 130 47 144 54 53 29 356 246 370
266 12 17 121 139 163 183 56 58 137 121 150 116 11 -4 24 9 43 43 15 26 40
62 55 78 15 17 36 49 48 72 12 24 61 96 110 160 49 65 98 136 110 158 24 44
71 120 115 186 76 114 96 148 123 202 21 44 32 57 45 53 12 -2 18 1 18 12 0
33 124 216 185 272 53 49 71 111 36 129 -14 8 -24 4 -45 -18 -18 -18 -24 -31
-17 -35 19 -12 12 -26 -13 -26 -16 0 -26 -7 -30 -23 -3 -14 -22 -31 -48 -45
-77 -39 -122 -68 -126 -81 -3 -10 0 -11 16 -2 11 6 25 11 31 11 19 0 -43 -98
-117 -184 -76 -90 -83 -93 -165 -88 -25 2 -28 -1 -25 -25 2 -22 8 -27 23 -25
11 2 28 11 38 20 34 30 26 5 -9 -31 -29 -28 -42 -35 -61 -31 -13 4 -37 0 -55
-7 l-31 -13 24 -10 c23 -10 22 -10 -13 -14 -42 -4 -52 -22 -12 -22 14 0 23 -4
19 -10 -3 -5 -24 -10 -46 -10 -27 0 -39 -4 -39 -14 0 -9 -7 -12 -18 -9 -12 3
-22 -4 -30 -21 -7 -16 -20 -26 -33 -26 -21 0 -22 -1 -4 -20 22 -24 15 -36 -12
-22 -11 6 -25 7 -32 3 -7 -5 -22 -6 -32 -4 -13 4 -19 0 -19 -10 0 -21 -23 -33
-80 -42 -25 -4 -48 -12 -51 -17 -3 -5 -17 -4 -34 4 -25 11 -29 10 -47 -12 -10
-13 -17 -29 -14 -37 3 -7 3 -13 1 -13 -3 0 -12 18 -21 40 -24 59 -35 48 -13
-12 22 -60 23 -68 10 -68 -5 0 -17 22 -26 50 -19 56 -41 80 -32 34 3 -16 11
-47 17 -69 20 -68 18 -100 -7 -103 -29 -4 -61 51 -43 73 10 12 7 17 -14 26
-14 7 -26 18 -26 26 0 7 -9 13 -20 13 -23 0 -25 -12 -9 -43 8 -15 9 -22 1 -25
-7 -2 -7 -12 0 -33 8 -23 14 -28 30 -23 18 5 18 4 8 -16 -9 -16 -9 -25 1 -36
9 -11 8 -14 -7 -14 -13 0 -26 17 -42 52 -28 65 -40 56 -18 -13 15 -46 16 -54
3 -67 -13 -13 -19 -11 -51 13 -32 24 -36 33 -36 71 0 47 -9 54 -31 27 -9 -10
-13 -35 -10 -71 4 -69 -14 -62 -22 9 -9 74 -47 113 -47 48 0 -18 -7 -37 -15
-43 -18 -13 -22 -40 -11 -75 6 -17 5 -22 -5 -19 -8 3 -16 18 -19 34 -3 16 -16
51 -28 78 -29 63 -23 84 9 28 31 -54 43 -54 20 0 -19 46 -50 73 -95 84 l-29 7
5 -66 4 -66 -31 4 c-43 5 -43 5 -15 17 l25 10 -35 12 c-42 15 -45 14 -31 -12
9 -16 7 -21 -9 -25 -18 -5 -20 0 -20 39 0 32 -4 44 -15 44 -8 0 -15 -7 -15
-16 0 -10 -6 -13 -19 -9 -22 7 -46 -19 -34 -37 4 -7 13 -27 19 -45 10 -29 10
-31 -9 -24 -11 4 -27 25 -35 46 -14 34 -14 40 3 71 15 28 24 34 50 34 19 0 39
8 50 20 10 11 24 20 31 20 7 0 28 13 46 29 46 40 98 66 83 41 -3 -5 7 -5 25 1
16 6 30 16 30 22 0 6 7 19 17 29 15 17 15 18 -12 18 -23 0 -25 2 -15 15 6 8
21 13 33 12 17 -2 24 8 37 48 9 28 19 57 22 65 22 62 28 94 28 146 0 33 5 65
12 72 9 9 9 15 0 24 -16 16 -15 75 1 81 20 7 181 -5 192 -14 5 -5 45 -9 90 -9
72 1 78 2 61 15 -13 10 -43 15 -83 15 -35 0 -63 4 -63 10 0 6 38 10 94 10 53
0 98 4 101 10 3 6 16 10 28 11 l22 0 -22 9 c-34 14 -28 30 11 30 38 0 57 -16
29 -23 -32 -7 38 -28 71 -21 17 3 76 21 132 40 55 19 121 34 145 34 32 0 40 3
29 10 -8 5 -26 10 -40 11 l-25 1 26 8 c15 4 56 24 92 45 37 20 71 34 76 31 5
-3 12 1 15 10 9 24 8 26 -14 14 -16 -9 -20 -8 -20 6 0 9 9 18 20 21 33 9 23
25 -10 18 -18 -4 -36 -2 -45 5 -9 8 -15 8 -20 0 -19 -30 -107 -60 -195 -67
-50 -3 -93 -10 -96 -15 -3 -4 9 -8 26 -8 16 0 39 -5 49 -12 15 -9 36 -7 102
12 46 12 94 29 107 37 13 8 31 13 40 11 20 -4 -86 -68 -111 -68 -9 0 -31 -7
-49 -15 -37 -17 -218 -45 -218 -34 0 20 33 38 59 33 16 -4 37 -1 48 5 16 9 14
10 -14 11 -17 0 -35 5 -38 10 -3 6 -18 10 -33 10 -27 0 -27 1 13 35 25 21 34
34 24 35 -8 0 -20 -5 -26 -11 -8 -8 -13 -8 -18 0 -4 7 -22 -2 -51 -25 -58 -48
-70 -35 -15 16 23 22 38 40 33 40 -21 0 -82 -31 -77 -40 3 -5 -5 -21 -18 -36
-21 -24 -25 -25 -45 -13 -35 22 -30 37 31 82 20 15 37 35 37 44 0 13 -6 11
-28 -10 -15 -15 -36 -27 -45 -27 -16 0 -16 2 -1 25 21 32 4 32 -26 0 -13 -14
-29 -24 -34 -22 -6 2 -21 0 -33 -4 -34 -13 -28 5 12 35 19 15 35 34 35 43 0
14 -4 13 -23 -5 -17 -16 -26 -19 -34 -11 -8 8 -14 5 -22 -10 -12 -22 -36 -27
-61 -11 -13 8 -13 13 -2 30 10 17 10 25 1 36 -16 19 5 44 37 44 13 0 35 5 49
12 l26 12 -23 19 -23 19 28 -6 c15 -3 38 -9 52 -12 15 -4 25 -2 25 5 0 6 -8
11 -17 11 -14 0 -14 3 -5 12 10 10 15 10 20 1 9 -14 132 -15 132 -2 0 12 37
11 45 -1 3 -5 17 -10 30 -10 13 0 27 5 30 10 3 6 16 10 28 10 20 0 20 0 1 15
-17 14 -14 15 41 10 187 -17 175 -14 175 -45 0 -30 13 -45 30 -35 6 4 4 17 -5
36 l-16 29 33 0 c42 0 60 -12 52 -33 -5 -14 0 -17 29 -17 20 0 48 -5 64 -12
l28 -12 -27 -4 c-38 -5 -36 -22 2 -22 23 0 33 -6 39 -24 8 -19 29 -36 47 -36
2 0 4 9 4 20 0 11 6 20 13 20 18 0 77 -63 77 -82 0 -30 -194 -147 -245 -148
-29 0 -93 -24 -108 -40 -10 -10 -8 -12 7 -6 11 4 59 18 107 31 83 24 136 52
220 117 37 28 69 37 69 18 0 -5 -7 -10 -15 -10 -8 0 -15 -8 -15 -18 0 -17 6
-16 60 11 33 17 60 35 60 41 0 16 78 56 96 49 9 -3 14 2 14 17 0 21 1 22 25 6
32 -21 44 -20 38 4 -6 24 23 38 46 22 9 -7 32 -20 51 -31 19 -10 54 -41 77
-68 l42 -50 7 -131 c6 -114 9 -132 24 -132 22 0 48 146 31 178 -6 11 -11 44
-11 72 0 48 -4 57 -51 112 -71 82 -124 101 -229 84 -47 -8 -127 -34 -145 -47
-6 -4 -28 -14 -50 -21 -54 -19 -105 -5 -105 28 0 12 -4 26 -10 29 -5 3 -10 16
-10 28 0 29 -23 94 -38 109 -19 19 -14 28 16 29 l27 0 -25 12 c-22 10 -16 12
53 15 99 4 93 22 -8 22 -50 0 -75 -4 -78 -12 -3 -10 -7 -10 -20 1 -14 11 -20
11 -34 0 -15 -13 -16 -10 -10 26 6 36 29 67 58 77 5 2 14 19 18 38 4 19 11 46
16 60 l7 25 -27 -25 -28 -25 8 25 c14 40 18 231 6 243 -6 6 -11 36 -11 67 0
43 -6 64 -25 92 -15 23 -25 51 -25 73 0 20 -5 45 -10 56 -10 18 -6 19 103 19
93 0 123 4 160 20 30 14 55 18 77 14 28 -6 32 -4 28 12 -2 12 -13 20 -30 22
-15 2 -32 10 -38 18 -9 10 -34 14 -85 14 -59 0 -75 4 -90 20 -10 11 -24 20
-32 20 -7 0 -13 9 -13 20 0 11 -6 30 -12 41 -10 17 -10 23 0 26 6 3 12 16 12
29 0 24 -1 24 -92 24 -68 0 -96 -4 -108 -15 -14 -13 -22 -13 -46 -4 l-29 12
33 7 c60 14 47 20 -40 20 -66 0 -97 5 -134 22 -27 11 -64 23 -82 24 -40 4 -52
11 -53 32 -1 9 -4 4 -8 -13 -4 -21 -13 -31 -28 -33 -22 -3 -22 -1 -17 42 9 60
-9 60 -26 1 -15 -52 -19 -56 -47 -49 -18 5 -20 12 -16 52 4 44 3 46 -11 28 -9
-11 -16 -25 -16 -31 0 -7 -9 -20 -20 -30 -20 -18 -20 -17 -20 31 l0 49 -18
-35 c-13 -28 -24 -36 -49 -38 -32 -3 -33 -2 -33 32 0 20 -4 36 -10 36 -5 0
-10 -16 -10 -35 0 -19 -4 -35 -10 -35 -5 0 -10 16 -10 35 0 24 -5 35 -15 35
-11 0 -15 -11 -15 -39 0 -22 -4 -43 -10 -46 -6 -4 -10 8 -10 29 0 20 -4 36
-10 36 -5 0 -10 -11 -10 -25 0 -20 -5 -25 -26 -25 -26 0 -26 5 -7 58 7 18 -12
15 -31 -7 -9 -10 -14 -25 -10 -35 4 -11 1 -16 -10 -16 -12 0 -16 10 -16 45 0
54 -14 58 -30 10z m541 -331 c-12 -15 -21 -34 -21 -43 0 -11 4 -9 16 8 12 17
19 20 28 11 8 -8 7 -14 -4 -23 -14 -11 -40 -71 -40 -91 0 -5 7 -3 15 4 8 7 15
19 15 26 0 8 10 14 21 14 18 0 19 -2 9 -15 -10 -13 -9 -15 9 -15 23 0 23 5 3
60 -5 13 -4 13 13 0 17 -14 18 -13 12 3 -10 27 12 20 25 -8 16 -35 29 -31 21
5 -5 25 -3 29 11 24 18 -7 21 8 6 37 -14 24 -5 24 27 -1 14 -11 30 -20 35 -20
5 0 4 9 -2 20 -8 16 -8 20 4 20 31 0 25 -21 -19 -75 -57 -71 -60 -90 -9 -69
37 15 64 13 64 -6 0 -5 -11 -10 -25 -10 -29 0 -32 -8 -7 -26 14 -10 20 -10 35
3 9 9 17 22 17 30 0 7 11 13 26 13 14 0 34 5 45 10 16 9 19 7 19 -8 0 -10 4
-22 10 -28 12 -12 -6 -84 -20 -84 -6 0 -10 -8 -10 -17 1 -17 1 -17 11 -1 6 10
16 15 26 11 9 -4 21 1 29 12 16 22 20 19 29 -18 6 -21 4 -27 -9 -27 -11 0 -16
-9 -16 -27 l1 -28 13 24 c10 18 15 21 20 10 5 -11 7 -11 12 -1 8 16 24 15 24
-2 0 -8 -7 -17 -16 -20 -11 -4 -14 -12 -9 -24 4 -9 8 -22 9 -29 1 -7 5 -16 9
-19 4 -4 7 -49 7 -100 0 -81 -2 -92 -19 -97 -16 -4 -18 -12 -15 -62 3 -50 1
-58 -17 -62 -14 -4 -18 -11 -14 -22 4 -9 9 -22 12 -29 3 -7 -9 -18 -31 -27
-51 -21 -76 -19 -76 6 l0 20 -26 -20 c-34 -27 -44 -26 -44 0 0 18 -2 19 -15 9
-8 -7 -15 -19 -15 -27 0 -10 -6 -13 -16 -9 -9 3 -29 6 -45 6 -26 0 -29 3 -24
20 5 14 2 20 -9 20 -9 0 -16 -9 -16 -20 0 -21 -12 -24 -44 -11 -16 6 -14 11
19 40 28 24 43 31 59 26 57 -19 95 -17 125 6 33 26 75 85 86 119 9 28 -32 117
-58 124 -10 2 -16 9 -13 15 8 12 -18 27 -64 36 -25 4 -49 0 -85 -16 -58 -26
-74 -43 -75 -81 0 -17 -5 -28 -14 -28 -38 0 -17 -118 25 -141 11 -5 19 -14 19
-19 0 -18 -39 -50 -55 -44 -9 4 -19 -3 -26 -20 -9 -18 -22 -27 -48 -32 -70
-11 -81 -9 -81 21 0 27 10 31 41 15 24 -14 25 1 0 31 -16 20 -21 21 -35 10 -9
-7 -16 -24 -16 -37 0 -16 -10 -28 -30 -39 -29 -15 -30 -15 -30 6 0 18 -2 19
-15 9 -18 -15 -21 -13 -30 23 -7 26 -5 27 29 27 25 0 36 4 36 15 0 18 -5 19
-32 4 -19 -10 -20 -9 -15 11 5 18 2 21 -15 17 -16 -5 -19 -2 -15 14 6 22 -6
25 -22 5 -8 -10 -9 -16 -1 -21 5 -3 10 -30 10 -59 0 -50 -2 -54 -28 -59 -15
-3 -58 2 -95 12 -55 15 -67 16 -67 5 0 -10 14 -14 48 -15 44 -1 45 -1 19 -11
-20 -7 -26 -15 -22 -28 7 -21 -24 -37 -36 -18 -7 10 -11 10 -21 0 -19 -19 -56
-14 -68 9 -15 26 -6 36 16 18 14 -11 18 -10 30 6 13 18 12 21 -11 28 -62 21
-1 75 72 64 33 -6 35 -5 21 10 -15 14 -24 14 -90 1 -68 -13 -73 -16 -73 -40
-1 -37 -23 -58 -61 -58 -18 0 -36 -5 -40 -12 -5 -7 -11 -5 -21 7 -20 28 -17
48 6 36 10 -6 34 -8 53 -5 29 5 34 10 31 28 -3 13 2 28 11 35 9 8 16 17 16 22
0 16 -33 9 -77 -17 -38 -22 -45 -23 -58 -10 -8 8 -15 22 -15 32 0 13 6 16 35
11 19 -3 35 -2 35 4 0 5 -8 9 -19 9 -21 0 -75 46 -67 59 3 4 -4 25 -14 47 -12
23 -20 58 -20 90 0 43 3 53 20 57 12 3 20 14 20 26 0 23 -10 27 -27 10 -6 -6
-16 -8 -22 -5 -14 9 -15 113 -1 121 6 3 10 17 10 31 0 19 5 24 25 24 22 0 25
3 20 28 -5 22 -4 24 5 10 6 -10 19 -18 28 -18 21 1 56 46 49 64 -7 17 28 51
67 66 38 14 42 8 13 -26 -32 -39 -77 -107 -77 -116 0 -5 7 -8 15 -8 8 0 15 9
15 20 0 14 7 20 23 20 34 0 45 12 49 49 2 22 11 39 27 49 23 16 23 16 17 -15
-4 -17 -3 -34 2 -37 6 -3 8 -15 5 -26 -4 -16 0 -20 17 -20 19 0 21 2 9 16 -10
13 -10 17 1 24 11 7 12 11 0 25 -11 13 -10 19 10 40 31 33 37 31 32 -9 -2 -18
1 -37 7 -40 6 -4 11 -1 11 7 0 8 10 22 22 33 21 19 21 19 15 -3 -4 -13 -10
-33 -13 -45 -5 -23 -5 -23 10 -3 9 11 19 37 23 57 4 30 9 36 18 28 9 -8 14 -7
18 2 2 7 8 10 12 6 4 -4 -5 -32 -20 -63 -37 -73 -26 -81 14 -10 17 30 35 55
40 55 18 0 22 -20 7 -26 -9 -3 -16 -14 -16 -24 0 -10 -6 -20 -12 -23 -7 -2
-10 -7 -7 -11 4 -4 24 14 45 39 l38 46 -30 24 c-42 33 -22 43 24 11 21 -14 44
-26 50 -26 8 0 3 -15 -12 -37 -14 -20 -24 -38 -22 -40 8 -9 33 10 50 40 16 26
20 29 24 14 2 -10 9 -16 15 -14 18 6 19 24 0 42 -16 17 -16 17 7 10 14 -4 30
-12 37 -19 13 -12 7 -56 -8 -56 -5 0 -9 -5 -9 -12 0 -7 9 -3 21 9 15 15 22 36
24 74 3 53 20 79 53 79 10 0 8 -7 -7 -26z m-1752 -1921 c38 -27 56 -51 29 -40
-7 3 -29 12 -48 20 -44 18 -90 6 -70 -18 10 -12 9 -15 -4 -15 -10 0 -26 5 -37
11 -17 9 -21 7 -26 -11 -6 -23 -58 -54 -73 -45 -6 3 -10 1 -10 -4 0 -6 15 -11
33 -11 22 0 28 -3 18 -9 -7 -5 -10 -14 -7 -20 4 -6 4 -16 0 -22 -4 -8 -13 -4
-25 12 l-19 24 0 -27 c0 -30 -9 -35 -29 -15 -10 10 -12 9 -10 -3 4 -24 -12
-80 -23 -80 -6 0 -8 13 -4 33 9 46 9 50 1 70 -6 13 -2 17 16 17 20 0 24 6 25
30 1 25 -1 28 -17 20 -10 -6 -21 -15 -24 -20 -7 -12 -75 -14 -75 -2 0 4 21 15
48 25 26 11 57 23 69 29 21 10 37 9 78 -8 17 -7 18 -6 7 8 -11 14 -8 19 22 37
20 13 41 19 52 14 13 -5 16 -3 11 10 -11 28 47 21 92 -10z m207 -98 c16 -10
25 -11 30 -4 5 8 9 8 14 0 4 -7 40 -20 82 -30 92 -23 118 -36 118 -62 0 -22
-28 -38 -39 -21 -4 7 -12 8 -20 2 -19 -11 -41 -1 -50 23 -9 24 -94 50 -111 33
-18 -18 -11 -26 18 -21 21 4 31 0 45 -20 22 -31 35 -148 18 -169 -8 -10 -9
-16 -1 -21 5 -3 10 1 10 9 0 9 5 16 10 16 28 0 -9 -68 -40 -73 -17 -3 -13 -4
13 -6 38 -1 46 -11 24 -29 -35 -29 -267 0 -267 34 0 17 1 17 34 4 20 -7 26 -6
26 3 0 19 -21 37 -42 37 -10 0 -18 7 -18 16 0 10 6 13 18 10 15 -5 18 1 19 35
2 34 0 39 -12 29 -22 -18 -29 10 -20 73 4 29 6 71 6 95 -1 24 2 48 5 54 9 14
100 3 130 -17z m-995 -305 c10 -6 66 -11 124 -11 104 -1 105 -1 105 -25 0 -13
5 -24 10 -24 6 0 10 11 10 25 0 23 2 25 22 14 16 -9 23 -9 26 0 4 13 68 15 76
2 3 -5 68 -12 143 -16 76 -3 161 -11 188 -17 104 -22 125 -29 125 -38 0 -13
-45 -13 -90 0 l-35 9 25 -20 c24 -20 33 -21 225 -15 110 3 227 10 260 14 52 7
57 9 33 16 -16 5 -28 11 -28 15 0 12 95 33 170 37 41 2 84 4 95 5 53 3 135 -6
135 -14 0 -6 7 -19 17 -29 15 -17 15 -20 -7 -43 -13 -14 -33 -25 -45 -25 -11
0 -26 -5 -32 -11 -6 -6 -29 -12 -51 -13 l-41 -3 17 25 c16 25 16 26 -1 19 -11
-4 -29 -10 -42 -13 -20 -5 -23 -11 -19 -34 7 -31 -10 -48 -30 -31 -7 6 -20 9
-27 7 -70 -22 -90 -13 -39 17 49 29 34 37 -21 11 -93 -45 -174 -71 -223 -72
-27 -1 -53 1 -57 4 -4 2 -1 20 7 39 18 44 18 55 -1 55 -9 0 -15 -9 -15 -24 0
-35 -39 -75 -80 -82 l-35 -6 28 26 c24 22 26 28 15 51 -6 14 -17 25 -25 25
-16 0 -18 -26 -2 -36 7 -4 -2 -19 -22 -40 -24 -25 -42 -34 -66 -34 -32 0 -33
1 -33 44 0 36 -5 48 -27 65 -30 25 -39 21 -24 -8 10 -18 6 -24 -30 -51 -23
-16 -53 -30 -67 -30 -20 0 -23 4 -18 23 18 62 19 77 3 77 -10 0 -13 -6 -10
-20 10 -36 -73 -120 -117 -120 -6 0 -10 12 -8 28 3 23 8 27 40 30 20 2 39 10
42 18 6 17 -8 18 -35 4 -16 -9 -21 -7 -28 14 -17 44 -31 40 -31 -10 0 -48 -20
-84 -46 -84 -10 0 -11 6 -4 26 14 35 12 64 -3 64 -7 0 -28 -16 -47 -35 -37
-39 -57 -46 -40 -15 16 30 2 70 -25 70 -31 0 -49 -24 -41 -56 5 -18 3 -30 -6
-35 -8 -6 -1 -9 20 -9 22 0 32 -4 30 -12 -6 -17 -51 -18 -73 -2 -18 13 -18 15
1 35 l19 22 -32 -17 c-31 -15 -32 -15 -53 12 -19 24 -20 25 -15 5 7 -26 -8
-62 -19 -44 -11 17 -67 14 -60 -3 3 -9 -4 -15 -20 -18 -32 -6 -32 -3 -1 34 14
16 25 38 25 49 0 27 -7 24 -25 -10 -18 -36 -73 -71 -110 -71 l-28 0 22 24 c19
20 20 27 10 50 -17 36 -29 33 -29 -9 0 -28 -4 -35 -19 -35 -10 0 -32 -7 -47
-15 -16 -8 -38 -15 -48 -15 -18 0 -18 1 -3 18 19 20 24 102 7 102 -5 0 -10
-16 -10 -35 0 -25 -6 -37 -21 -45 -28 -16 -36 -4 -14 20 31 34 7 36 -28 2 -18
-18 -43 -32 -55 -32 -19 0 -22 6 -22 36 0 31 -2 35 -15 24 -8 -7 -15 -26 -15
-42 0 -31 0 -31 50 -26 55 6 66 -6 23 -23 -20 -7 -39 -7 -64 0 -20 6 -59 11
-87 11 -35 0 -57 6 -73 20 -13 10 -19 19 -12 20 6 0 15 -4 18 -10 8 -13 60
-13 83 -1 9 5 26 13 37 16 13 5 15 9 7 12 -7 3 -25 0 -41 -5 -29 -10 -29 -10
-25 26 l5 37 -18 -35 c-9 -19 -19 -37 -20 -39 -1 -2 -10 2 -18 9 -13 10 -20
11 -39 1 -13 -7 -34 -11 -47 -9 -22 3 -20 6 21 33 40 26 42 30 23 33 -13 2
-23 11 -23 20 -1 9 -7 2 -15 -15 -8 -18 -20 -33 -27 -33 -25 -1 -93 -12 -97
-16 -2 -2 11 -4 30 -4 33 0 59 -14 59 -33 0 -4 -5 -5 -11 -1 -7 4 -39 11 -73
15 -33 5 -104 16 -156 25 -52 10 -123 18 -157 18 -50 0 -60 3 -51 13 8 10 -4
13 -61 13 -64 0 -71 2 -71 20 0 19 7 20 129 20 76 0 132 4 136 10 3 6 15 10
26 10 10 0 19 -4 19 -10 0 -5 -9 -10 -19 -10 -11 0 -23 -4 -26 -10 -4 -6 8
-10 29 -10 26 0 36 -4 36 -15 0 -16 23 -14 78 6 13 5 33 9 45 9 12 0 36 7 52
16 17 9 46 18 65 20 19 2 58 8 85 14 28 6 62 13 78 17 15 3 34 0 43 -7 11 -10
18 -10 26 -2 7 7 20 12 30 12 10 0 26 5 36 10 9 6 42 16 72 24 47 11 55 11 58
0 5 -22 19 -16 26 11 6 22 12 25 51 25 49 0 50 -2 35 -31 -6 -10 -7 -19 -2
-19 15 0 32 24 32 47 0 25 19 30 51 13z m2336 -143 c26 -44 38 -137 17 -137
-8 0 -20 -11 -26 -25 -6 -13 -19 -27 -28 -30 -10 -3 -25 -14 -35 -25 -25 -28
-36 -25 -25 6 13 34 13 44 -4 44 -7 0 -19 6 -25 14 -9 11 -4 24 24 60 41 53
47 80 10 46 l-25 -23 0 30 c0 36 24 60 65 66 17 2 31 5 32 6 0 0 10 -14 20
-32z m-397 -21 c0 -19 -4 -38 -10 -41 -5 -3 -10 -23 -10 -44 0 -35 -3 -39 -30
-43 -32 -5 -52 8 -28 17 15 6 18 42 5 63 -11 16 -26 6 -38 -25 -5 -13 -13 -22
-18 -18 -5 3 -11 -4 -13 -15 -4 -25 -22 -31 -26 -9 -2 9 9 30 23 47 32 38 32
42 -5 42 -16 0 -30 3 -30 8 0 9 72 32 99 32 11 0 23 5 26 10 3 6 17 10 31 10
21 0 24 -5 24 -34z m-3330 -13 c8 -4 35 -7 60 -8 40 -2 45 -5 51 -31 4 -16 10
-37 14 -46 6 -16 1 -18 -40 -18 -25 0 -68 7 -94 16 -40 13 -51 22 -69 60 l-22
44 43 -6 c23 -3 49 -8 57 -11z m3534 -29 c3 -9 6 -48 6 -88 0 -45 5 -79 13
-91 16 -21 37 -12 37 16 0 10 5 19 10 19 6 0 10 -12 10 -28 0 -21 -8 -32 -36
-47 -20 -10 -44 -29 -54 -42 -22 -28 -34 -30 -27 -3 8 32 -12 23 -34 -14 -19
-33 -49 -55 -49 -37 0 5 16 32 35 61 40 59 40 60 20 60 -8 0 -15 8 -15 18 0
13 -6 10 -24 -13 l-24 -30 3 47 c2 29 11 57 24 74 25 32 26 43 5 51 -11 4 -23
-3 -36 -20 -11 -15 -24 -24 -29 -21 -6 3 -5 12 2 21 10 11 10 19 1 33 -10 16
-7 19 26 23 20 3 55 10 77 15 22 5 43 10 46 11 4 0 10 -6 13 -15z m-689 -66
c10 -46 7 -140 -5 -152 -5 -5 -44 -16 -87 -23 -43 -8 -91 -17 -106 -20 -27 -5
-28 -4 -16 15 22 36 1 37 -41 3 -29 -23 -40 -28 -40 -16 0 22 -18 19 -25 -5
-7 -22 -25 -27 -25 -7 0 7 7 22 15 33 22 29 20 47 -4 34 -14 -7 -22 -7 -27 1
-4 8 -12 2 -21 -15 -18 -34 -36 -35 -23 0 6 14 10 47 10 73 0 77 2 78 190 85
91 4 169 11 174 16 17 17 23 11 31 -22z m-2943 -55 c4 -83 25 -99 30 -21 2 43
7 54 22 56 15 3 17 0 12 -14 -15 -37 -20 -118 -8 -110 7 4 12 23 12 42 0 21 4
33 10 29 6 -3 10 -17 10 -30 0 -30 10 -55 21 -55 5 0 4 12 -1 26 -17 43 -13
74 10 74 18 0 20 -7 20 -70 0 -38 -2 -70 -4 -70 -2 0 -35 13 -72 29 -38 15
-78 31 -88 35 -14 5 -16 10 -8 18 8 8 8 17 0 31 -11 22 5 97 22 97 5 0 10 -30
12 -67z m2443 10 c3 -16 10 -55 14 -88 4 -33 9 -66 12 -74 5 -17 -61 -42 -126
-47 -75 -5 -127 -14 -153 -27 -18 -8 -28 -8 -42 1 -11 7 -34 12 -51 12 -28 0
-30 2 -18 17 13 15 11 16 -13 11 l-27 -5 16 31 c15 30 15 31 -3 15 -36 -31
-47 -33 -39 -10 9 30 -12 26 -28 -5 l-14 -26 -22 38 c-26 44 -19 68 20 69 18
0 23 5 21 21 -6 46 41 60 228 70 52 3 99 10 105 15 5 5 32 9 61 9 48 0 52 -2
59 -27z m-1326 -17 c14 -8 42 -11 72 -8 67 6 109 -12 109 -48 0 -25 -4 -29
-42 -34 -24 -3 -62 -8 -84 -12 -26 -4 -44 -2 -48 5 -4 6 -24 11 -44 11 -28 0
-33 3 -24 12 7 7 12 26 12 43 0 47 9 53 49 31z m2141 -18 c5 -13 11 -35 15
-51 3 -15 19 -42 35 -60 l29 -32 23 22 c17 18 20 25 10 35 -14 14 -16 78 -3
78 23 0 41 -34 41 -75 0 -38 5 -47 37 -74 l38 -31 -61 0 c-33 0 -65 5 -72 12
-9 9 -18 6 -39 -13 -31 -28 -82 -53 -91 -44 -3 3 8 19 24 36 l29 30 -27 -10
c-32 -12 -35 -6 -11 21 14 16 14 18 0 18 -8 0 -17 -6 -20 -12 -2 -7 -8 -10
-12 -5 -5 4 5 21 21 38 l29 31 -33 -7 c-32 -7 -33 -6 -23 13 6 12 16 24 21 27
18 11 10 25 -15 25 -20 0 -25 5 -25 25 0 22 4 25 35 25 27 0 38 -5 45 -22z
m-1572 -18 c2 -14 8 -29 13 -34 14 -15 11 -38 -11 -81 -11 -22 -20 -52 -20
-67 0 -32 -2 -33 -39 -13 -39 20 -112 45 -133 45 -31 0 -78 34 -78 57 0 12 5
25 10 28 6 3 10 13 10 22 0 13 -5 12 -25 -7 -19 -18 -22 -26 -14 -37 9 -10 7
-13 -10 -13 -28 0 -29 45 -1 60 11 6 20 18 20 26 0 9 -9 18 -20 21 -11 3 -20
9 -20 14 0 6 68 8 158 7 l157 -3 3 -25z m1442 -30 c11 -21 21 -67 25 -112 6
-68 9 -78 26 -78 12 0 19 -7 19 -19 0 -13 -9 -20 -31 -23 -28 -4 -30 -3 -26
19 2 12 -1 31 -8 40 -12 17 -14 17 -35 -2 l-21 -19 6 27 c6 22 4 27 -10 27
-16 0 -16 2 -1 25 9 13 16 30 16 36 0 17 -38 -19 -45 -42 -9 -26 -25 -24 -25
3 0 12 17 39 37 60 39 40 27 54 -14 16 -29 -27 -30 -14 -2 31 16 27 17 32 5
27 -9 -3 -23 -9 -31 -12 -9 -4 -15 -1 -15 8 0 24 12 29 63 26 44 -3 50 -6 67
-38z m-2578 -9 c13 -5 35 -12 50 -15 l27 -6 3 -107 c2 -68 7 -108 14 -110 7
-2 15 9 18 24 4 15 18 45 32 66 24 36 24 37 3 37 -20 0 -20 0 -1 28 37 53 37
55 8 48 -19 -5 -26 -3 -26 9 0 15 54 22 139 17 54 -3 61 -15 61 -108 0 -59 4
-84 12 -84 9 0 9 -3 0 -12 -16 -16 -15 -58 2 -58 26 0 38 28 31 72 -3 24 -7
72 -8 108 -2 58 0 65 18 67 31 4 65 -58 65 -117 0 -27 5 -52 10 -55 6 -3 10
-31 10 -61 l0 -54 -64 0 c-36 0 -68 5 -71 10 -3 6 -42 10 -85 10 l-79 0 15 42
c9 27 11 45 5 51 -17 17 -41 -13 -41 -49 0 -40 -3 -40 -65 -14 -26 11 -55 20
-65 20 -19 0 -40 27 -40 51 0 8 4 8 16 -2 13 -10 17 -10 25 2 13 21 11 32 -5
26 -8 -3 -20 1 -26 9 -10 11 -9 14 3 14 8 0 20 7 27 15 10 13 9 15 -11 15
l-22 0 23 25 c19 20 20 25 7 25 -9 0 -19 -5 -23 -11 -10 -17 -36 38 -29 61 7
23 7 23 37 11z m672 -67 c17 -7 76 -88 76 -105 0 -5 11 -32 25 -59 14 -28 25
-66 25 -90 0 -35 -3 -40 -23 -40 -32 0 -47 18 -40 50 3 16 0 31 -7 35 -9 5
-10 1 -5 -15 6 -20 4 -21 -17 -15 -23 8 -23 8 -4 -14 25 -28 14 -38 -19 -17
-31 21 -31 27 0 54 14 12 25 32 25 44 0 22 -1 22 -23 -5 l-22 -28 -14 31 c-10
23 -10 35 -2 43 8 8 11 5 11 -13 1 -24 1 -24 15 -6 18 24 19 37 3 34 -7 -2
-11 4 -9 12 14 53 14 65 0 52 -8 -7 -19 -27 -26 -45 l-11 -32 -1 36 c-1 32 16
99 24 99 2 0 10 -3 19 -6z m1756 -45 c21 -76 44 -109 78 -109 19 0 32 8 43 26
20 32 33 18 16 -17 -11 -21 -20 -24 -73 -27 -50 -2 -63 1 -79 18 -10 11 -13
20 -7 20 7 0 12 8 12 18 0 15 -3 14 -18 -4 -17 -21 -52 -39 -52 -27 0 4 9 16
19 27 17 18 18 24 6 39 -8 12 -15 14 -20 8 -3 -6 -10 -11 -16 -11 -28 0 27 89
57 90 16 0 23 -10 34 -51z m-1041 -9 c20 -17 64 -39 96 -51 33 -11 71 -31 85
-43 14 -12 37 -27 53 -34 24 -10 27 -17 27 -59 l0 -48 -54 -23 c-40 -17 -63
-22 -90 -17 -24 5 -36 3 -36 -4 0 -6 5 -11 10 -11 6 0 10 -4 10 -10 0 -21 -26
-8 -64 30 -33 35 -44 40 -68 35 -22 -5 -28 -3 -28 10 0 9 -4 13 -10 10 -5 -3
-10 -14 -10 -24 0 -24 -23 -43 -43 -35 -13 5 -13 8 4 25 23 23 25 39 4 39 -8
0 -15 -9 -15 -21 0 -11 -4 -18 -9 -15 -5 3 -15 -1 -22 -10 -10 -13 -10 -17 1
-24 19 -12 12 -17 -30 -24 -32 -6 -36 -4 -50 26 -11 24 -23 34 -42 36 -16 2
-28 8 -28 13 0 15 54 10 79 -7 18 -13 25 -14 31 -4 4 7 16 9 29 5 24 -7 28 7
7 28 -13 13 -12 17 10 37 17 17 24 34 24 63 0 35 -2 38 -16 26 -9 -8 -13 -21
-10 -35 6 -24 -12 -37 -33 -24 -16 9 5 54 43 90 21 19 25 30 21 52 -6 28 -6
28 40 28 36 0 54 -6 84 -30z m859 -9 c7 -21 12 -57 12 -79 0 -51 14 -61 46
-31 19 18 27 20 37 10 9 -10 9 -14 -3 -21 -8 -5 -24 -16 -35 -24 -19 -15 -19
-15 -1 -16 11 0 33 10 50 23 25 19 41 22 84 19 55 -4 73 -22 23 -22 -17 0 -33
-4 -36 -10 -3 -5 -22 -10 -41 -10 -19 0 -43 -5 -53 -12 -15 -9 -25 -9 -46 0
-14 7 -32 12 -40 12 -21 0 -19 -18 3 -23 9 -3 -2 -3 -26 0 -35 5 -41 3 -37
-10 12 -29 -11 -25 -37 7 -18 23 -23 37 -17 47 15 24 10 29 -23 22 l-33 -6 24
27 c14 14 20 26 14 26 -7 0 -8 12 -3 36 10 43 12 45 53 60 59 22 73 18 85 -25z
m-1695 1 c32 -4 37 -8 37 -30 0 -26 16 -83 31 -114 17 -34 11 -58 -15 -58 -14
0 -28 5 -31 10 -3 6 -15 10 -25 10 -30 0 -50 39 -50 97 0 28 -4 55 -10 58 -5
3 -10 15 -10 27 0 15 4 18 18 12 9 -4 34 -9 55 -12z m397 -29 c107 -24 110
-25 116 -34 3 -5 25 -9 50 -9 38 0 44 -3 44 -21 0 -11 -5 -29 -11 -41 -14 -25
-6 -33 20 -18 19 10 21 8 21 -25 0 -39 -9 -43 -46 -18 -21 13 -30 14 -45 5
-33 -21 -266 -88 -275 -80 -1 2 8 15 21 30 15 18 26 24 31 17 4 -8 9 -7 15 2
8 12 10 12 18 0 9 -15 38 -4 60 23 11 13 9 16 -14 22 -14 3 -24 8 -22 11 3 2
-8 17 -24 32 -15 16 -31 41 -34 57 -4 16 -11 40 -16 53 -8 20 -7 22 8 16 10
-4 47 -13 83 -22z m1033 -15 c10 -85 28 -140 48 -145 48 -13 10 -23 -87 -23
l-106 0 6 24 c3 13 9 31 12 40 4 10 -2 19 -20 27 -20 10 -30 9 -50 -5 -36 -23
-43 -20 -16 9 30 31 6 34 -27 3 -16 -15 -23 -17 -23 -8 0 8 12 25 28 38 18 15
23 25 15 28 -26 11 -12 24 25 23 49 0 111 11 118 22 3 5 20 9 39 9 31 0 33 -2
38 -42z m1012 6 c-28 -21 -194 -120 -227 -135 -16 -7 -24 -17 -21 -25 3 -10
-3 -14 -18 -14 -13 0 -50 -14 -82 -31 -32 -16 -63 -29 -70 -26 -16 5 54 54
136 96 37 19 67 38 67 42 0 16 -15 10 -89 -36 -41 -25 -76 -43 -79 -40 -9 8
-52 -37 -52 -54 0 -11 -28 -27 -80 -48 l-80 -31 0 24 c0 33 -15 30 -53 -10
-21 -22 -45 -35 -69 -39 l-36 -5 21 32 c17 26 37 38 92 57 66 22 121 49 100
49 -30 -1 -200 -68 -203 -81 -11 -48 -55 -79 -112 -79 -16 0 -52 -9 -81 -20
-48 -19 -51 -19 -44 -3 4 10 9 26 12 35 6 20 16 24 112 44 83 17 136 40 66 29
-65 -11 -116 -23 -175 -41 -82 -24 -109 -28 -124 -14 -12 9 -19 7 -35 -9 -12
-12 -34 -21 -49 -21 -15 0 -33 -5 -40 -12 -9 -9 -12 -7 -12 10 0 13 -6 22 -16
22 -11 0 -14 -6 -9 -20 5 -15 2 -20 -14 -20 -13 0 -21 -8 -23 -22 -2 -19 -10
-24 -40 -26 -22 -2 -38 1 -38 7 0 6 14 11 31 11 36 0 33 9 -15 34 l-36 19 -25
-23 -25 -23 0 24 -1 24 -24 -27 c-14 -17 -34 -28 -50 -28 -16 0 -25 -6 -25
-15 0 -20 -24 -29 -45 -18 -15 9 -14 13 9 40 39 47 31 52 -13 9 -22 -21 -44
-35 -49 -32 -6 3 -12 -4 -14 -16 -2 -19 -10 -24 -45 -26 -24 -2 -43 0 -43 3 0
3 12 17 28 31 21 20 23 24 7 19 -11 -4 -34 -13 -51 -19 -17 -6 -29 -17 -26
-24 3 -9 -17 -12 -74 -12 l-78 0 29 30 c32 34 21 40 -18 10 -14 -11 -37 -20
-50 -20 -14 0 -29 -4 -32 -10 -3 -5 -42 -10 -85 -10 -43 0 -82 5 -85 10 -3 6
-33 10 -65 10 -32 0 -62 5 -65 10 -3 6 -24 10 -45 10 -21 0 -42 4 -45 10 -3 5
-20 9 -38 9 -18 -1 -48 5 -67 13 -19 8 -44 18 -54 22 -18 6 -17 9 11 26 31 19
48 38 41 45 -2 3 -20 -7 -40 -21 -35 -25 -58 -25 -58 -1 0 8 -20 13 -57 14
-63 1 -193 38 -193 55 0 6 11 8 28 3 56 -14 115 -18 108 -6 -4 6 -19 11 -34
11 -15 0 -43 5 -62 11 -19 5 -50 12 -67 14 -30 3 -171 65 -149 65 21 0 -29 39
-58 45 -51 11 -116 44 -116 60 0 21 13 19 70 -10 27 -14 56 -25 64 -25 8 0 29
-15 45 -32 28 -30 31 -31 31 -11 l0 21 53 -19 c50 -18 132 -34 227 -46 25 -3
49 -9 54 -14 6 -5 25 -9 43 -9 18 0 33 -5 33 -10 0 -6 25 -10 58 -9 31 0 82
-3 112 -8 l55 -8 -2 -35 c-1 -25 -10 -43 -32 -62 -35 -31 -51 -35 -51 -14 0 8
-4 18 -10 21 -12 8 -13 -35 -1 -53 7 -12 14 -11 38 2 17 8 33 22 36 31 8 18
27 20 27 2 0 -8 10 -23 23 -34 l22 -21 37 24 c36 23 68 64 50 64 -5 0 -19 -11
-32 -25 -31 -33 -67 -33 -82 1 -9 20 -9 30 0 45 7 10 12 25 12 33 0 11 10 13
43 9 23 -2 51 -7 62 -10 94 -25 298 -41 557 -42 123 -1 189 -5 194 -12 3 -6
15 -8 28 -4 24 9 208 25 278 24 25 0 49 5 53 11 3 5 30 10 59 10 28 0 56 4 61
9 6 5 28 11 50 14 22 3 67 13 100 22 33 9 75 19 93 22 18 3 35 9 38 14 3 5 16
9 29 9 13 0 26 4 29 9 3 4 31 11 63 14 32 4 83 16 113 27 30 11 65 20 77 20
12 0 25 5 28 10 3 6 17 10 30 10 13 0 51 9 84 19 61 19 62 19 56 0 -4 -10 -2
-19 4 -19 5 0 13 9 16 21 4 12 12 18 21 15 8 -3 14 -2 14 2 0 10 115 60 140
61 11 0 10 -4 -5 -15z"/>
<path d="M4715 4780 c-3 -5 -17 -10 -30 -10 -30 0 -93 -70 -148 -165 -22 -38
-50 -86 -62 -105 -12 -20 -26 -56 -30 -80 -10 -61 -10 -184 0 -242 4 -26 4
-55 -1 -65 -8 -19 -17 29 -32 172 l-7 70 -6 -60 c-3 -33 -2 -73 3 -90 5 -16
11 -43 13 -60 2 -16 9 -50 15 -75 6 -25 15 -65 18 -90 5 -29 10 -40 15 -32 10
15 28 6 22 -11 -2 -7 -6 -25 -10 -41 -5 -26 -4 -28 9 -17 14 11 16 11 16 -4 0
-9 9 -19 20 -22 12 -3 27 -17 34 -32 l14 -26 13 28 c9 20 10 33 2 45 -5 9 -8
28 -6 41 3 19 0 22 -17 18 -22 -6 -25 0 -11 22 6 9 2 34 -10 69 -20 57 -26
132 -10 132 4 0 11 -25 14 -55 3 -29 11 -62 17 -72 9 -14 10 -2 4 52 -13 140
4 297 46 415 14 40 67 100 88 100 8 0 11 7 7 19 -4 13 5 28 30 50 46 40 68 41
30 1 -31 -32 -24 -40 13 -14 12 8 22 22 22 31 0 12 7 14 30 10 16 -4 32 -3 34
2 7 11 128 -30 139 -46 4 -7 17 -13 29 -13 28 0 117 -50 129 -73 6 -10 17 -16
24 -13 8 3 12 0 9 -7 -3 -9 6 -12 33 -9 23 2 69 -7 117 -23 76 -26 81 -26 93
-9 11 16 9 23 -24 56 -41 42 -138 97 -150 84 -11 -10 23 -34 69 -48 36 -11
103 -68 80 -68 -7 0 -56 23 -110 50 -54 28 -103 50 -110 50 -7 0 -12 4 -12 9
0 5 -3 18 -7 28 -5 14 -1 13 21 -7 28 -25 54 -21 64 10 3 7 0 10 -6 6 -6 -3
-33 7 -61 23 -49 29 -76 27 -50 -5 14 -17 6 -29 -16 -21 -9 4 -15 19 -15 36 0
33 -20 43 -57 30 -14 -5 -25 -3 -33 7 -7 7 -18 14 -25 14 -7 0 -32 9 -56 20
-33 15 -66 20 -131 20 -48 0 -90 -4 -93 -10z"/>
<path d="M10623 3273 c-7 -3 -35 -50 -62 -106 -58 -121 -149 -247 -223 -309
-96 -80 -249 -164 -426 -233 -64 -26 -126 -50 -137 -55 -11 -5 -33 -11 -50
-14 -36 -6 -113 -26 -140 -37 -23 -9 -59 -17 -130 -29 -61 -10 -139 -28 -181
-41 -17 -5 -40 -9 -52 -9 -12 0 -22 -5 -22 -11 0 -18 167 13 217 39 12 7 37
12 55 12 19 0 85 14 148 31 63 17 126 33 140 36 14 2 34 8 45 13 11 5 72 29
135 54 127 49 174 73 299 149 110 67 181 133 242 224 49 72 164 282 157 287
-2 2 -9 1 -15 -1z"/>
<path d="M8280 2282 c0 -4 5 -13 12 -20 9 -9 7 -12 -10 -12 -26 0 -72 -20 -72
-32 0 -4 -7 -8 -15 -8 -8 0 -12 -6 -9 -13 2 -7 -8 -17 -27 -24 -17 -7 -33 -21
-36 -31 -2 -11 -15 -24 -28 -30 l-23 -11 21 -43 c21 -40 22 -41 25 -17 2 20
13 31 43 44 66 30 62 47 -5 20 -16 -7 -17 -6 -7 13 6 12 27 25 46 31 19 5 47
18 62 29 26 18 83 35 83 25 0 -2 -5 -13 -10 -24 -13 -23 -3 -24 24 -4 26 19
66 19 94 -1 37 -25 25 1 -18 40 -42 38 -59 43 -91 26 -16 -9 -19 -7 -19 9 0
11 -9 25 -20 31 -11 6 -20 7 -20 2z"/>
</g>
</svg>
