<?xml version="1.0" standalone="no"?>
<!DOCTYPE svg PUBLIC "-//W3C//DTD SVG 20010904//EN"
 "http://www.w3.org/TR/2001/REC-SVG-20010904/DTD/svg10.dtd">
<svg version="1.0" xmlns="http://www.w3.org/2000/svg"
 width="822.000000pt" height="397.000000pt" viewBox="0 0 822.000000 397.000000"
 preserveAspectRatio="xMidYMid meet">
<metadata>
Created by potrace 1.13, written by Peter Selinger 2001-2015
</metadata>
<g transform="translate(0.000000,397.000000) scale(0.100000,-0.100000)"
fill="#000000" stroke="none">
<path d="M1945 3749 c-408 -48 -789 -234 -1082 -531 -465 -469 -639 -1129
-467 -1768 56 -206 176 -445 313 -625 131 -171 332 -349 522 -463 367 -220
847 -304 1249 -220 265 56 289 62 284 70 -3 4 1 5 9 2 12 -4 3420 733 3484
754 16 5 -262 122 -1118 472 -626 256 -1139 470 -1139 475 0 6 485 223 1078
484 593 260 1085 477 1093 481 7 5 11 11 8 15 -11 10 -3334 746 -3352 741 -9
-2 -15 -1 -12 4 2 4 -17 12 -43 18 -26 5 -90 21 -142 35 -221 61 -470 81 -685
56z"/>
</g>
</svg>
